<svg width="400" height="344" xmlns="http://www.w3.org/2000/svg" xmlns:xlink="http://www.w3.org/1999/xlink" xml:space="preserve" overflow="hidden"><defs><clipPath id="clip0"><rect x="1061" y="1662" width="400" height="344"/></clipPath></defs><g clip-path="url(#clip0)" transform="translate(-1061 -1662)"><path d="M1396.67 1944 1123.29 1944C1120.92 1944 1119 1942.07 1119 1939.69L1119 1782.72C1119 1763.96 1134.46 1759 1142.64 1759L1377.36 1759C1396.05 1759 1401 1774.51 1401 1782.72L1401 1939.69C1401 1942.07 1399.08 1944 1396.71 1944ZM1127.59 1935.38 1392.38 1935.38 1392.38 1782.72C1392.38 1781.2 1391.79 1767.62 1377.33 1767.62L1142.64 1767.62C1141.06 1767.62 1127.59 1768.21 1127.59 1782.72L1127.59 1935.38Z" fill="#FFFFFF" fill-rule="evenodd"/><path d="M1090.3 2005.97C1089.16 2005.97 1088.06 2005.52 1087.27 2004.69 1086.48 2003.86 1086 2002.79 1086 2001.66L1086 1960.93C1086 1959.41 1086.79 1958.03 1088.06 1957.24L1121.92 1936.72C1122.57 1936.31 1123.36 1936.1 1124.15 1936.1L1394.89 1936 1394.89 1936C1395.65 1936 1396.37 1936.21 1397.02 1936.55L1432.84 1957.07C1434.18 1957.83 1435 1959.28 1435 1960.83L1435 2001.55C1435 2003.93 1433.08 2005.86 1430.7 2005.86L1090.3 2006 1090.3 2006ZM1094.59 1963.34 1094.59 1997.35 1426.41 1997.21 1426.41 1963.31 1393.76 1944.59 1125.35 1944.69 1094.63 1963.34Z" fill="#FFFFFF" fill-rule="evenodd"/><path d="M1145 1783 1377 1783 1377 1920 1145 1920Z" fill="#FFFFFF" fill-rule="evenodd"/><path d="M1379 1922 1143 1922 1143 1781 1378.97 1781 1378.97 1922ZM1147.17 1917.89 1374.9 1917.89 1374.9 1785.11 1147.14 1785.11 1147.14 1917.89Z" fill="#FFFFFF" fill-rule="evenodd"/><path d="M1116 1969 1404 1969 1404 1981 1116 1981Z" fill="#FFFFFF" fill-rule="evenodd"/><path d="M1382 1712.81C1382 1703.54 1374.6 1696 1365.5 1696 1357.89 1696 1351.52 1701.31 1349.61 1708.47L1313.26 1708.47C1310.91 1708.47 1309 1710.42 1309 1712.81L1309 1738.83C1311.9 1740.12 1314.76 1741.51 1317.52 1743L1317.52 1717.16 1349.61 1717.16C1351.52 1724.31 1357.86 1729.63 1365.5 1729.63 1374.6 1729.63 1382 1722.09 1382 1712.81ZM1365.5 1720.94C1361.1 1720.94 1357.52 1717.29 1357.52 1712.81 1357.52 1708.33 1361.1 1704.68 1365.5 1704.68 1369.9 1704.68 1373.48 1708.33 1373.48 1712.81 1373.48 1717.29 1369.9 1720.94 1365.5 1720.94Z" fill="#FFFFFF" fill-rule="evenodd"/><path d="M1278.59 1730 1278.59 1682.77 1426.37 1682.77C1428.3 1689.79 1434.68 1695.01 1442.38 1695.01 1451.55 1695.01 1459 1687.61 1459 1678.51 1459 1669.4 1451.55 1662 1442.38 1662 1434.72 1662 1428.3 1667.22 1426.37 1674.24L1274.29 1674.24C1271.92 1674.24 1270 1676.15 1270 1678.51L1270 1729.11C1272.89 1729.32 1275.77 1729.59 1278.59 1730ZM1442.38 1670.53C1446.81 1670.53 1450.41 1674.11 1450.41 1678.51 1450.41 1682.9 1446.81 1686.49 1442.38 1686.49 1437.95 1686.49 1434.34 1682.9 1434.34 1678.51 1434.34 1674.11 1437.95 1670.53 1442.38 1670.53Z" fill="#FFFFFF" fill-rule="evenodd"/><path d="M1077.65 1695.18C1085.31 1695.18 1091.73 1689.94 1093.66 1682.87L1241.42 1682.87 1241.42 1731C1244.23 1730.49 1247.12 1730.07 1250 1729.77L1250 1678.59C1250 1676.23 1248.08 1674.31 1245.71 1674.31L1093.62 1674.31C1091.7 1667.24 1085.31 1662 1077.62 1662 1068.45 1662 1061 1669.44 1061 1678.59 1061 1687.74 1068.45 1695.18 1077.62 1695.18ZM1077.65 1670.57C1082.08 1670.57 1085.69 1674.17 1085.69 1678.59 1085.69 1683.01 1082.08 1686.61 1077.65 1686.61 1073.22 1686.61 1069.62 1683.01 1069.62 1678.59 1069.62 1674.17 1073.22 1670.57 1077.65 1670.57Z" fill="#FFFFFF" fill-rule="evenodd"/><path d="M1086 1758.5C1086 1753.81 1082.41 1750 1078 1750 1073.59 1750 1070 1753.81 1070 1758.5 1070 1763.19 1073.59 1767 1078 1767 1082.41 1767 1086 1763.19 1086 1758.5Z" fill="#FFFFFF" fill-rule="evenodd"/><path d="M1444 1750C1439.59 1750 1436 1753.81 1436 1758.5 1436 1763.19 1439.59 1767 1444 1767 1448.41 1767 1452 1763.19 1452 1758.5 1452 1753.81 1448.41 1750 1444 1750Z" fill="#FFFFFF" fill-rule="evenodd"/><path d="M1202.74 1708.5 1166.39 1708.5C1164.48 1701.33 1158.14 1696 1150.5 1696 1141.4 1696 1134 1703.56 1134 1712.85 1134 1722.15 1141.4 1729.71 1150.5 1729.71 1158.11 1729.71 1164.48 1724.38 1166.39 1717.21L1198.48 1717.21 1198.48 1749 1207 1749 1207 1712.85C1207 1710.45 1205.09 1708.5 1202.74 1708.5ZM1150.5 1721C1146.1 1721 1142.52 1717.35 1142.52 1712.85 1142.52 1708.36 1146.1 1704.71 1150.5 1704.71 1154.9 1704.71 1158.48 1708.36 1158.48 1712.85 1158.48 1717.35 1154.9 1721 1150.5 1721Z" fill="#FFFFFF" fill-rule="evenodd"/><path d="M1309 1734 1317 1734 1317 1749 1309 1749Z" fill="#FFFFFF" fill-rule="evenodd"/><path d="M1270 1726 1279 1726 1279 1749 1270 1749Z" fill="#FFFFFF" fill-rule="evenodd"/><path d="M1242 1726 1250 1726 1250 1749 1242 1749Z" fill="#FFFFFF" fill-rule="evenodd"/><path d="M1109 1820.4 1081.88 1820.4 1081.88 1774.69C1088.94 1772.8 1094.19 1766.37 1094.19 1758.66 1094.19 1749.47 1086.75 1742 1077.59 1742 1068.44 1742 1061 1749.47 1061 1758.66 1061 1766.33 1066.25 1772.77 1073.31 1774.69L1073.31 1824.7C1073.31 1827.07 1075.23 1829 1077.59 1829L1109 1829 1109 1820.4ZM1069.57 1758.69C1069.57 1754.25 1073.17 1750.64 1077.59 1750.64 1082.02 1750.64 1085.62 1754.25 1085.62 1758.69 1085.62 1763.13 1082.02 1766.74 1077.59 1766.74 1073.17 1766.74 1069.57 1763.13 1069.57 1758.69Z" fill="#FFFFFF" fill-rule="evenodd"/><path d="M1444.29 1742C1435.07 1742 1427.58 1749.47 1427.58 1758.66 1427.58 1766.33 1432.86 1772.77 1439.97 1774.69L1439.97 1820.4 1410 1820.4 1410 1829 1444.29 1829C1446.67 1829 1448.6 1827.07 1448.6 1824.7L1448.6 1774.69C1455.72 1772.8 1461 1766.37 1461 1758.66 1461 1749.47 1453.51 1742 1444.29 1742ZM1444.29 1766.71C1439.83 1766.71 1436.21 1763.1 1436.21 1758.66 1436.21 1754.22 1439.83 1750.6 1444.29 1750.6 1448.74 1750.6 1452.37 1754.22 1452.37 1758.66 1452.37 1763.1 1448.74 1766.71 1444.29 1766.71Z" fill="#FFFFFF" fill-rule="evenodd"/></g></svg>