<?xml version="1.0" encoding="UTF-8"?>
<svg id="Ebene_2" xmlns="http://www.w3.org/2000/svg" viewBox="0 0 356.35 418.29">
  <defs>
    <style>
      .cls-1 {
        fill: #fff;
      }
    </style>
  </defs>
  <g id="Ebene_1-2" data-name="Ebene_1">
    <g>
      <g>
        <path class="cls-1" d="M0,114.64c.59,9.59,3.54,18.81,7.95,27.2,4.38,8.43,10.1,16.06,15.27,24.21,2.59,4.07,5.08,8.29,6.92,12.92,1.84,4.59,2.99,9.7,2.59,14.84-.12,2.56-.71,5.1-1.42,7.51l-2.19,6.86c-1.51,4.58-3.13,9.12-4.9,13.62-1.77,4.5-3.7,8.97-5.86,13.32-1.91,4.21-5.2,9-4.09,11.49.46,1.25,2.1,2.5,4.07,3.39,1.95.91,4.18,1.64,6.38,2.26,4.37,1.22,8.93,1.42,14.04,2.44,1.3.36,2.74.57,4.4,2.08.82.73,1.41,2.15,1.41,3.14.05.69.02,1.54-.02,2.13-.2,2.58-.59,4.91-.87,7.26-.28,2.3-.54,4.68-.38,6.63-.05.99.71,1.66-.13.95.49.16-.08-.06.24.02.2.01.42.02.68.01.49,0,1.05-.04,1.6-.09,4.51-.45,9.23-1.4,13.86-2.34,4.65-.97,9.31-2.03,13.92-3.15,1.38-.34,2.77.51,3.11,1.89.33,1.33-.46,2.68-1.76,3.07l-18.42,5.55,1.74-1.83c-.6,2.65-1,5.82-.55,8.03.11.53.3.93.42,1.09,0,.05.22.14-.03.04.33.15.78.38.88.37.83.28,2.44.47,3.95.62,1.57.19,3.29.33,5.21,1.12.95.35,1.93,1.03,2.76,1.84.77.81,1.43,2.06,1.68,2.81,1.17,3.18,1.86,6.15,2.68,9.15.79,2.97,1.56,5.96,2.52,8.72.24.68.49,1.36.77,1.94.29.66.47.91.97,1.66.78,1.14,1.69,2.17,2.66,3.12,3.98,3.74,9.66,5.24,15.39,4.67,5.75-.45,11.48-2.42,16.91-4.95,5.52-2.5,10.75-5.57,15.87-8.9,5.11-3.34,10.05-6.97,15.22-10.5,5.15-3.41,10.63-7.19,17.53-8.1,3.4-.43,6.95.19,10,1.54,3.15,1.45,5.52,2.96,8.35,4.43,5.49,2.94,10.95,6.67,15.07,11.6,4.18,4.87,7.22,10.52,9.63,16.31,2.41,5.8,4.18,11.81,5.62,17.87,2.81,12.13,4.43,24.45,5.61,36.77,1.2,12.32,1.78,24.69,2.1,37.05-1.79-24.62-3.9-49.4-10.05-73.23-3.22-11.75-7.34-23.67-15.28-32.68-3.93-4.51-8.93-7.81-14.35-10.6-2.68-1.33-5.61-3.05-8.1-4.12-2.62-1.09-5.39-1.5-8.12-1.12-5.51.78-10.65,4.26-15.61,7.73-4.97,3.56-9.94,7.33-15.17,10.76-5.21,3.43-10.66,6.68-16.39,9.31-5.73,2.69-11.85,4.9-18.46,5.47-6.5.72-13.88-1.01-19-5.82-1.25-1.19-2.39-2.49-3.37-3.9-.37-.52-1.06-1.56-1.37-2.33-.39-.82-.68-1.59-.96-2.36-1.09-3.08-1.87-6.08-2.69-9.07-.81-2.96-1.58-6.01-2.57-8.63-.44-1.13-.74-1.38-1.74-1.84-.94-.41-2.35-.59-3.83-.74-1.55-.19-3.06-.21-5.18-.88-.65-.21-.88-.35-1.26-.52-.91-.49-1.3-.89-1.78-1.45-.83-1.07-1.19-2.16-1.42-3.13-.72-3.89-.15-6.99.52-10.35.18-.89.83-1.56,1.64-1.8l.11-.03,18.41-5.59,1.35,4.96c-4.7,1.11-9.38,2.15-14.12,3.1-4.75.93-9.43,1.87-14.46,2.34-1.4.02-2.3.35-4.61-.24-1.6-.57-2.34-1.96-2.61-2.78-.32-.9-.42-1.67-.48-2.39-.19-2.83.15-5.24.45-7.68.31-2.4.7-4.8.89-6.99.04-.6.06-.95.03-1.46-.03-.21.05.04,0-.06-.1-.17-1.09-.6-2.08-.81-4.26-.9-9.35-1.19-14.22-2.57-2.4-.69-4.74-1.46-7.12-2.59-2.27-1.12-5.02-2.67-6.37-5.95-1.27-3.37.1-6.56,1.1-8.69l3.25-6.47c2.12-4.22,4.02-8.53,5.78-12.94,1.76-4.4,3.36-8.88,4.92-13.37l2.3-6.78c.69-2.16,1.28-4.3,1.45-6.53.96-8.97-3.31-17.78-8.12-25.85-4.88-8.14-10.32-16.18-14.27-25.02C2.34,133.84-.18,124.25,0,114.64Z"/>
        <path class="cls-1" d="M45.85,182.61l8.07-4.68,19.64-6.37-15.87,17.56s1.56-7.15.39-7.28-12.23.78-12.23.78Z"/>
        <path class="cls-1" d="M39.14,178.12s8.2,1.95,16.09-.61c7.89-2.56,15.53-5.04,15.53-5.04l-12.67,9.37s-14.44,4.72-18.95-3.71Z"/>
        <path class="cls-1" d="M47.02,181.81s-.97-5.07-1.72-10.17c-.37-2.55-.69-5.11-.85-7.03-.17-1.93-.18-3.21-.18-3.21,0,0,.07,1.29.31,3.2.24,1.91.66,4.45,1.14,6.98.95,5.06,2.13,10.06,2.13,10.06l-.83.18Z"/>
      </g>
      <path class="cls-1" d="M217.36,17.47s1.36-.95,3.9-2.73c2.57-1.73,6.37-4.27,11.51-6.97,5.13-2.65,11.6-5.72,19.63-7.13,7.89-1.48,17.87-.63,26.08,5.51,8.21,6.01,13.97,15.79,17.89,26.49,3.92,10.78,6.37,22.66,7.91,35.01,3,24.75,2.71,51.44.19,77.86-.64,6.61-1.46,13.2-2.47,19.74-1.01,6.56-2.47,12.97-3.08,19.39-1.42,12.89-1.29,25.7-.85,38.04,1.04,24.71,5.3,47.62,11.58,66.38,6.3,18.78,14.81,33.14,21.98,42.18,3.63,4.49,6.82,7.75,9.08,9.87,2.31,2.07,3.55,3.17,3.55,3.17,0,0-1.27-1.06-3.66-3.05-2.35-2.04-5.65-5.19-9.47-9.58-3.77-4.42-7.97-10.15-11.97-17.21-3.97-7.07-7.77-15.43-11.08-24.85-6.57-18.85-11.14-41.88-12.5-66.79-.7-12.45-.38-25.39,1.13-38.42.71-6.57,2.25-12.98,3.26-19.46,1.04-6.49,1.88-13.04,2.56-19.62,2.64-26.28,3.07-52.87.22-77.48-1.46-12.28-3.83-24.08-7.65-34.73-3.86-10.56-9.33-20.2-17.21-26.15-7.87-6.07-17.57-7.07-25.39-5.73-7.95,1.27-14.45,4.22-19.6,6.79-5.16,2.62-8.99,5.1-11.59,6.79-2.57,1.74-3.94,2.67-3.94,2.67Z"/>
      <path class="cls-1" d="M276.07,173.94s-1.36,2.75-3.22,7.75c-1.88,5-4.18,12.29-5.95,21.24-.83,4.48-1.6,9.36-1.83,14.56-.16,2.6-.24,5.26-.07,7.99,0,2.73.32,5.48.67,8.29.18,2.83,1.11,5.57,1.64,8.42.83,2.76,1.77,5.55,2.87,8.28,1.41,2.58,2.4,5.45,4.15,7.83,1.67,2.54,3.28,5.18,5.24,7.41,1.81,2.37,3.69,4.71,5.8,6.88,1.99,2.26,4.09,4.41,6.29,6.44,2.11,2.11,4.31,4.1,6.55,5.99,2.18,1.96,4.41,3.81,6.67,5.56,4.44,3.58,8.86,6.88,13.12,9.93,4.25,3.07,8.37,5.81,12.2,8.32,15.32,10.02,26.16,15.73,26.16,15.73,0,0-2.78-1.28-7.54-3.72-4.75-2.47-11.57-5.96-19.4-10.77-3.91-2.41-8.14-5.04-12.5-8-4.37-2.95-8.95-6.11-13.43-9.72-2.29-1.74-4.56-3.59-6.79-5.55-2.29-1.89-4.53-3.89-6.7-6.01-2.25-2.04-4.4-4.2-6.46-6.49-2.15-2.18-4.14-4.58-6.05-7.06-3.88-4.83-6.97-10.16-9.51-15.82-1.12-2.84-2.07-5.75-2.9-8.63-.52-2.95-1.45-5.8-1.61-8.72-.32-2.89-.66-5.73-.56-8.53-.09-2.8.07-5.52.31-8.16.39-5.29,1.32-10.22,2.29-14.73,1.01-4.5,2.26-8.54,3.46-12.08,1.26-3.52,2.45-6.55,3.51-9.01,2.13-4.92,3.62-7.59,3.62-7.59Z"/>
      <path class="cls-1" d="M311,263.12s-4.99-1.56-13.4-5.14c-8.38-3.62-20.3-9.11-33.44-17.77-6.46-4.43-13.6-9.31-19.27-16.69-2.96-3.79-3.81-8.81-4.2-13.55-.32-4.81.06-9.71.79-14.6,1.52-9.79,4.45-19.64,8.66-29.14,2.09-4.79,4.79-9.28,7.09-13.85,2.35-4.6,4.58-9.3,6.66-14.05,8.3-19.01,14.88-38.94,17.52-58.2,1.31-9.59,1.61-19.08-.06-27.76-1.58-8.67-5.57-16.44-11.46-21.39-5.89-4.97-12.9-7.19-19.09-8.17-6.25-.9-11.82-.79-16.35-.45-4.54.34-8.09.89-10.5,1.29-2.41.43-3.69.66-3.69.66,0,0,1.28-.27,3.67-.76,2.4-.47,5.93-1.11,10.49-1.58,4.54-.46,10.13-.73,16.5,0,6.29.85,13.62,2.83,19.86,7.95,6.25,5.08,10.55,13.18,12.31,22.09,1.86,8.94,1.69,18.62.51,28.39-2.58,19.58-9.13,39.69-17.4,58.92-2.08,4.81-4.3,9.56-6.66,14.22-2.35,4.72-5.05,9.1-7.09,13.72-4.16,9.26-7.1,18.93-8.65,28.46-.75,4.76-1.13,9.52-.86,14.1.35,4.54,1.1,9.04,3.67,12.49,5.15,7.02,12.16,12.1,18.45,16.58,12.89,8.76,24.52,14.75,32.76,18.63,8.26,3.87,13.2,5.6,13.2,5.6Z"/>
      <polygon class="cls-1" points="98.08 130.1 97.64 128.88 186.33 96.95 186.76 98.17 98.08 130.1"/>
      <g>
        <path class="cls-1" d="M195.86,155.94l-.83-.99,37.6-31.59,2.19-5.42,4.87-17.88-8.75-43.13-27.01-32.1-27.5-12.45-62.12.22-26.4,8.88-45.09,22.98-21.28,42.85,18.12,35.18-1.15.59-18.27-35.47c-.09-.18-.1-.4,0-.58l21.52-43.34c.07-.12.16-.23.29-.29l45.37-23.11,26.59-8.95c.07-.02.14-.03.21-.03l62.36-.22h0c.09,0,.18.02.27.06l27.76,12.57c.09.04.17.1.23.17l27.21,32.34c.07.08.12.18.14.29l8.81,43.44c.02.1.02.2-.01.3l-4.93,18.1-2.27,5.65c-.04.1-.11.18-.19.25l-37.72,31.7Z"/>
        <ellipse class="cls-1" cx="20.81" cy="87.3" rx="4.62" ry="4.95" transform="translate(-4.43 1.18) rotate(-2.93)"/>
        <ellipse class="cls-1" cx="38.75" cy="122.05" rx="5" ry="5.37" transform="translate(-6.18 2.14) rotate(-2.93)"/>
        <ellipse class="cls-1" cx="42.33" cy="43.97" rx="5.07" ry="5.43" transform="translate(-2.19 2.22) rotate(-2.93)"/>
        <ellipse class="cls-1" cx="87.7" cy="20.85" rx="7.04" ry="7.55" transform="translate(-.95 4.51) rotate(-2.93)"/>
        <ellipse class="cls-1" cx="90.9" cy="50.2" rx="4.71" ry="5.05" transform="translate(-2.44 4.71) rotate(-2.93)"/>
        <ellipse class="cls-1" cx="95.35" cy="103.46" rx="6.33" ry="6.79" transform="translate(-5.16 5) rotate(-2.93)"/>
        <ellipse class="cls-1" cx="97.86" cy="129.49" rx="5.83" ry="6.25" transform="translate(-6.49 5.17) rotate(-2.93)"/>
        <ellipse class="cls-1" cx="176.57" cy="11.72" rx="5.58" ry="5.99" transform="translate(-.37 9.03) rotate(-2.93)"/>
        <ellipse class="cls-1" cx="114.2" cy="11.94" rx="2.82" ry="3.02" transform="translate(-.46 5.85) rotate(-2.93)"/>
        <ellipse class="cls-1" cx="177.28" cy="59.69" rx="5.76" ry="6.18" transform="translate(-2.82 9.13) rotate(-2.93)"/>
        <ellipse class="cls-1" cx="186.55" cy="97.56" rx="5.08" ry="5.45" transform="translate(-4.74 9.65) rotate(-2.93)"/>
        <ellipse class="cls-1" cx="195.45" cy="155.45" rx="4.23" ry="4.54" transform="translate(-7.68 10.18) rotate(-2.93)"/>
        <ellipse class="cls-1" cx="232.5" cy="56.59" rx="5.61" ry="6.02" transform="translate(-2.59 11.95) rotate(-2.93)"/>
        <ellipse class="cls-1" cx="240.35" cy="100.08" rx="5.9" ry="6.33" transform="translate(-4.8 12.41) rotate(-2.93)"/>
        <ellipse class="cls-1" cx="233.17" cy="123.75" rx="2.09" ry="2.24" transform="translate(-6.02 12.07) rotate(-2.93)"/>
        <ellipse class="cls-1" cx="204.33" cy="24.3" rx="1.72" ry="1.85" transform="translate(-.97 10.47) rotate(-2.93)"/>
        <path class="cls-1" d="M195.28,156.07l-97.59-25.95c-.15-.04-.29-.14-.37-.27l-19.2-29.46-57.44-12.45c-.27-.06-.47-.28-.51-.54-.04-.27.1-.53.34-.66l36.21-19.17-14.91-22.87c-.19-.28-.12-.66.15-.87.14-.11.3-.14.47-.13l48.55,5.87c.28.03.51.25.56.52s-.09.56-.33.69l-28.63,15.16,33.25,37.1c.19.21.22.52.08.76-.15.24-.43.36-.7.31l-15.29-3.31,18.35,28.15,97.35,25.89-.33,1.25ZM78.91,99.24l14.62,3.17-32.13-35.85-2.82,1.49,20.33,31.19ZM22.68,87.05l54.43,11.8-19.68-30.19-34.75,18.4ZM47.51,51.06l10.36,15.89,2.64-1.39-13-14.5ZM43.98,45.18l17.7,19.75,27.08-14.34-44.79-5.41Z"/>
        <polygon class="cls-1" points="100.61 131.6 20.5 87.87 21.12 86.74 101.23 130.47 100.61 131.6"/>
        <path class="cls-1" d="M38.75,122.7c-.2,0-.4-.1-.52-.27-.17-.23-.17-.53,0-.76l52.15-71.86c.07-.09.16-.16.26-.21L176.3,11.13c.26-.12.6-.04.78.21.18.24.17.58-.03.81l-78.24,91.58-.98-.84L174.2,13.5l-82.87,37.22-50.87,70.09,54.69-17.97.41,1.23-56.6,18.59c-.07.02-.14.03-.2.03Z"/>
        <path class="cls-1" d="M93.64,103.73l-.08-1.3,91.23-5.42-53.82-41.76-40.14-4.41.14-1.29,38.04,4.18-41.71-32.37c-.26-.2-.33-.56-.16-.84.17-.28.5-.4.82-.27l89.58,38.84c.29.13.45.45.37.76s-.36.57-.7.48l-43.77-4.81,53.51,41.52c.22.16.3.45.22.7-.08.26-.31.44-.58.46l-92.94,5.52ZM131.48,54.01l41.6,4.57L92.16,23.5l39.32,30.51Z"/>
        <path class="cls-1" d="M195.45,156.09c-.1,0-.2-.02-.3-.07l-100.1-51.98.6-1.15,97.38,50.57L87.84,22.06l-48.5,100.27-1.16-.56L87.12,20.57c.1-.2.29-.34.51-.36.17-.02.44.07.58.24l107.75,134.59c.19.24.19.58,0,.82-.13.15-.31.24-.5.24Z"/>
        <path class="cls-1" d="M238.36,101.02l-51.85-2.81c-.26-.02-.49-.18-.58-.43s-.02-.52.18-.7l20.12-17.94-29.31-18.9c-.24-.15-.35-.44-.28-.71.07-.27.31-.47.59-.48l31.27-1.76-32.47-45.18c-.19-.26-.16-.63.08-.85.23-.22.6-.24.85-.04l55.94,44.86c.15.12.24.3.24.49,0,.19-.08.37-.22.5l-14,12.49,21.8,30.34c.18.25.16.6-.06.82-.21.23-.56.27-.82.1l-1.44-.93-.06,1.12ZM188.15,97l49.97,2.71-30.76-19.84-19.21,17.13ZM208.37,78.97l29.31,18.9-19.73-27.45-9.58,8.55ZM179.3,60.23l27.94,18.02,9.95-8.88-7.79-10.83-30.11,1.69ZM210.94,58.45l7.22,10.05,12.53-11.17-19.76,1.11ZM179.86,15.2l30.18,42,20.73-1.17-50.91-40.83Z"/>
        <path class="cls-1" d="M195.45,156.09c-.11,0-.22-.03-.32-.09-.27-.16-.39-.49-.28-.79l37.06-98.86,1.22.46-35.66,95.13,42.25-52.08,1,.82-44.76,55.17c-.13.16-.31.24-.5.24Z"/>
        <path class="cls-1" d="M20.14,87.34c5.73-3.42,11.51-6.73,17.29-10.04,5.78-3.32,11.55-6.65,17.4-9.84,11.68-6.41,23.24-13.04,35.02-19.26l.99-.52,1.04.49,24.23,11.46c8.07,3.83,16.18,7.59,24.17,11.58l24.05,11.82c8.01,3.95,16.06,7.84,23.99,11.95l-2.18.32,22.98-20.03c7.78-6.54,15.45-13.21,23.34-19.63-7.11,7.28-14.44,14.32-21.66,21.48l-22.01,21.09-.92.88-1.26-.56c-8.16-3.64-16.21-7.51-24.29-11.32l-24.23-11.45c-8.1-3.76-16.09-7.77-24.11-11.7l-24.05-11.82,2.03-.03c-11.81,6.17-23.83,11.91-35.74,17.89-5.95,2.99-11.97,5.86-17.98,8.73-6.01,2.88-12.02,5.76-18.08,8.53Z"/>
        <ellipse class="cls-1" cx="90.9" cy="50.2" rx="7.56" ry="8.11" transform="translate(-2.44 4.71) rotate(-2.93)"/>
        <ellipse class="cls-1" cx="186.55" cy="97.56" rx="5.08" ry="5.45" transform="translate(-4.74 9.65) rotate(-2.93)"/>
        <ellipse class="cls-1" cx="232.5" cy="56.59" rx="6.4" ry="6.86" transform="translate(-2.59 11.95) rotate(-2.93)"/>
        <ellipse class="cls-1" cx="20.81" cy="87.3" rx="4.62" ry="4.95" transform="translate(-4.43 1.18) rotate(-2.93)"/>
      </g>
    </g>
  </g>
</svg>