<svg width="351" height="365" xmlns="http://www.w3.org/2000/svg" xmlns:xlink="http://www.w3.org/1999/xlink" xml:space="preserve" overflow="hidden"><defs><clipPath id="clip0"><rect x="490" y="1645" width="351" height="365"/></clipPath></defs><g clip-path="url(#clip0)" transform="translate(-490 -1645)"><path d="M562 1649 802 1649 802 1924 562 1924Z" fill="#FFFFFF" fill-rule="evenodd"/><path d="M803 1926 561 1926 561 1648 802.966 1648 802.966 1926ZM564.461 1922.57 799.574 1922.57 799.574 1651.43 564.426 1651.43 564.426 1922.57Z" fill-rule="evenodd"/><path d="M801.736 1929 562.298 1929C559.926 1929 558 1927.07 558 1924.7L558 1649.3C558 1646.93 559.926 1645 562.298 1645L801.702 1645C804.075 1645 806 1646.93 806 1649.3L806 1924.7C806 1927.07 804.075 1929 801.702 1929ZM566.631 1920.4 797.438 1920.4 797.438 1653.6 566.597 1653.6 566.597 1920.4Z" fill-rule="evenodd"/><path d="M546 1665 786.001 1665 786.001 1941 546 1941Z" fill="#FFFFFF" fill-rule="evenodd"/><path d="M787 1942 545 1942 545 1664 787 1664 787 1942ZM548.427 1938.57 783.573 1938.57 783.573 1667.43 548.427 1667.43 548.427 1938.57Z" fill-rule="evenodd"/><path d="M785.702 1945 546.298 1945C543.926 1945 542 1943.07 542 1940.7L542 1665.3C542 1662.93 543.926 1661 546.298 1661L785.702 1661C788.074 1661 790 1662.93 790 1665.3L790 1940.7C790 1943.07 788.074 1945 785.702 1945ZM550.597 1936.4 781.403 1936.4 781.403 1669.6 550.597 1669.6 550.597 1936.4Z" fill-rule="evenodd"/><path d="M711.256 1815 693.243 1846.31 539.739 1846.31 495 1929.73 495 2005 837 2005 836.346 1815 711.256 1815Z" fill="#FFFFFF" fill-rule="evenodd"/><path d="M837.966 2006 494 2006 494 1928.77 539.268 1844.24 692.149 1844.24 710.085 1813 837.349 1813 838 2006ZM497.429 2002.57 834.502 2002.57 833.885 1816.43 712.04 1816.43 694.104 1847.67 541.291 1847.67 497.395 1929.63 497.395 2002.57Z" fill-rule="evenodd"/><path d="M836.737 2008.97 495.298 2008.97C492.925 2008.97 491 2007.04 491 2004.66L491 1929.25C491 1928.53 491.172 1927.84 491.516 1927.22L536.216 1843.64C536.972 1842.23 538.416 1841.37 539.998 1841.37L690.74 1841.37 707.485 1812.17C708.241 1810.83 709.686 1810 711.199 1810L836.083 1810C838.456 1810 840.381 1811.93 840.381 1814.3L841 2004.66C841 2005.8 840.554 2006.9 839.763 2007.73 838.938 2008.55 837.871 2009 836.703 2009ZM499.596 2000.36 832.404 2000.36 831.785 1818.61 713.674 1818.61 696.929 1847.81C696.173 1849.15 694.728 1849.98 693.215 1849.98L542.542 1849.98 499.596 1930.35 499.596 2000.36Z" fill-rule="evenodd"/><path d="M692.718 1729 592.282 1729C589.918 1729 588 1726.98 588 1724.5 588 1722.02 589.918 1720 592.282 1720L692.718 1720C695.082 1720 697 1722.02 697 1724.5 697 1726.98 695.082 1729 692.718 1729Z" fill="#B9052D" fill-rule="evenodd"/><path d="M737.696 1762 592.305 1762C589.929 1762 588 1759.98 588 1757.5 588 1755.02 589.929 1753 592.305 1753L737.696 1753C740.072 1753 742.001 1755.02 742.001 1757.5 742.001 1759.98 740.072 1762 737.696 1762Z" fill="#B9052D" fill-rule="evenodd"/><path d="M692.718 1795 592.282 1795C589.918 1795 588 1792.98 588 1790.5 588 1788.02 589.918 1786 592.282 1786L692.718 1786C695.082 1786 697 1788.02 697 1790.5 697 1792.98 695.082 1795 692.718 1795Z" fill="#B9052D" fill-rule="evenodd"/></g></svg>