<svg width="412" height="289" xmlns="http://www.w3.org/2000/svg" xmlns:xlink="http://www.w3.org/1999/xlink" xml:space="preserve" overflow="hidden"><defs><clipPath id="clip0"><rect x="2780" y="1692" width="412" height="289"/></clipPath></defs><g clip-path="url(#clip0)" transform="translate(-2780 -1692)"><path d="M2950.45 1877C2949.29 1877 2948.16 1876.52 2947.33 1875.66L2917.26 1843.69 2804.21 1843.69C2790.87 1843.69 2780 1832.79 2780 1819.41L2780 1716.27C2780 1702.9 2790.87 1692 2804.21 1692L3006.79 1692C3020.13 1692 3031 1702.9 3031 1716.27L3031 1788.44C3031 1790.81 3029.08 1792.73 3026.71 1792.73 3024.35 1792.73 3022.43 1790.81 3022.43 1788.44L3022.43 1716.27C3022.43 1707.64 3015.43 1700.6 3006.79 1700.6L2804.21 1700.6C2795.6 1700.6 2788.57 1707.61 2788.57 1716.27L2788.57 1819.41C2788.57 1828.04 2795.57 1835.09 2804.21 1835.09L2919.11 1835.09C2920.28 1835.09 2921.41 1835.57 2922.23 1836.43L2946.17 1861.87 2946.17 1839.39C2946.17 1837.02 2948.09 1835.09 2950.45 1835.09L2987.79 1835.09C2990.16 1835.09 2992.08 1837.02 2992.08 1839.39 2992.08 1841.76 2990.16 1843.69 2987.79 1843.69L2954.74 1843.69 2954.74 1872.7C2954.74 1874.46 2953.68 1876.04 2952.03 1876.69 2951.52 1876.9 2950.97 1877 2950.45 1877Z" fill="#FFFFFF" fill-rule="evenodd"/><path d="M3016.77 1981C3016.25 1981 3015.74 1980.9 3015.25 1980.73 3013.57 1980.11 3012.46 1978.5 3012.46 1976.72L3012.46 1942.93C3007.47 1937.92 3003.02 1932.51 2999.26 1926.82 2987.96 1909.79 2982 1889.91 2982 1869.42 2982 1811.85 3029.11 1765 3087 1765 3144.89 1765 3192 1811.85 3192 1869.42 3192 1926.99 3144.89 1973.84 3087 1973.84 3069.29 1973.84 3051.89 1969.38 3036.41 1960.88L3020.01 1979.53C3019.18 1980.49 3017.98 1981 3016.77 1981ZM3087 1773.53C3033.86 1773.53 2990.62 1816.54 2990.62 1869.39 2990.62 1888.2 2996.09 1906.43 3006.47 1922.06 3010.22 1927.71 3014.7 1933.09 3019.8 1938.03 3020.63 1938.85 3021.11 1939.95 3021.11 1941.11L3021.11 1965.27 3032.28 1952.56C3033.66 1951.01 3035.93 1950.64 3037.72 1951.7 3052.61 1960.54 3069.67 1965.2 3087 1965.2 3140.14 1965.2 3183.39 1922.19 3183.39 1869.35 3183.39 1816.51 3140.14 1773.5 3087 1773.5Z" fill="#FFFFFF" fill-rule="evenodd"/><path d="M3135.7 1845 3038.3 1845C3035.93 1845 3034 1843.21 3034 1841 3034 1838.79 3035.93 1837 3038.3 1837L3135.7 1837C3138.07 1837 3140 1838.79 3140 1841 3140 1843.21 3138.07 1845 3135.7 1845Z" fill="#FFFFFF" fill-rule="evenodd"/><path d="M3135.7 1871 3038.3 1871C3035.93 1871 3034 1869.21 3034 1867 3034 1864.79 3035.93 1863 3038.3 1863L3135.7 1863C3138.07 1863 3140 1864.79 3140 1867 3140 1869.21 3138.07 1871 3135.7 1871Z" fill="#FFFFFF" fill-rule="evenodd"/><path d="M3135.7 1896 3038.3 1896C3035.93 1896 3034 1893.98 3034 1891.5 3034 1889.02 3035.93 1887 3038.3 1887L3135.7 1887C3138.07 1887 3140 1889.02 3140 1891.5 3140 1893.98 3138.07 1896 3135.7 1896Z" fill="#FFFFFF" fill-rule="evenodd"/><path d="M2864.64 1819 2819.36 1819C2816.95 1819 2815 1817.08 2815 1814.72L2815 1770.28C2815 1767.92 2816.95 1766 2819.36 1766L2864.64 1766C2867.05 1766 2869 1767.92 2869 1770.28L2869 1814.72C2869 1817.08 2867.05 1819 2864.64 1819ZM2823.73 1810.44 2860.27 1810.44 2860.27 1774.57 2823.73 1774.57 2823.73 1810.44Z" fill="#FFFFFF" fill-rule="evenodd"/><path d="M2927.72 1819 2883.28 1819C2880.92 1819 2879 1817.07 2879 1814.7L2879 1751.3C2879 1748.93 2880.92 1747 2883.28 1747L2927.72 1747C2930.08 1747 2932 1748.93 2932 1751.3L2932 1814.7C2932 1817.07 2930.08 1819 2927.72 1819ZM2887.57 1810.4 2923.44 1810.4 2923.44 1755.6 2887.57 1755.6 2887.57 1810.4Z" fill="#FFFFFF" fill-rule="evenodd"/><path d="M2991.72 1819 2947.28 1819C2944.92 1819 2943 1817.07 2943 1814.7L2943 1723.3C2943 1720.93 2944.92 1719 2947.28 1719L2991.72 1719C2994.08 1719 2996 1720.93 2996 1723.3L2996 1814.7C2996 1817.07 2994.08 1819 2991.72 1819ZM2951.56 1810.4 2987.44 1810.4 2987.44 1727.6 2951.56 1727.6 2951.56 1810.4Z" fill="#FFFFFF" fill-rule="evenodd"/></g></svg>