<svg width="476" height="476" xmlns="http://www.w3.org/2000/svg" xmlns:xlink="http://www.w3.org/1999/xlink" xml:space="preserve" overflow="hidden"><g transform="translate(-2023 -958)"><path d="M2377.29 1233.03C2376.15 1233.03 2375.04 1232.56 2374.23 1231.72L2347.3 1203.14 2295.71 1203.14C2293.39 1203.14 2291.51 1201.26 2291.51 1198.94 2291.51 1196.62 2293.39 1194.74 2295.71 1194.74L2349.11 1194.74C2350.25 1194.74 2351.36 1195.21 2352.17 1196.05L2373.09 1218.25 2373.09 1198.94C2373.09 1196.62 2374.97 1194.74 2377.29 1194.74L2427.97 1194.74C2435.52 1194.74 2441.7 1188.59 2441.7 1181L2441.7 1088.44C2441.7 1080.89 2435.56 1074.74 2427.97 1074.74L2245.74 1074.74C2238.18 1074.74 2232 1080.89 2232 1088.44L2232 1154.41C2232 1156.72 2230.12 1158.6 2227.8 1158.6 2225.48 1158.6 2223.6 1156.72 2223.6 1154.41L2223.6 1088.44C2223.6 1076.25 2233.51 1066.35 2245.74 1066.35L2427.97 1066.35C2440.16 1066.35 2450.1 1076.25 2450.1 1088.44L2450.1 1181C2450.1 1193.2 2440.19 1203.14 2427.97 1203.14L2381.49 1203.14 2381.49 1228.83C2381.49 1230.54 2380.45 1232.09 2378.83 1232.73 2378.33 1232.93 2377.79 1233.03 2377.29 1233.03Z" stroke="#FFFFFF" stroke-width="3.35861" fill="#FFFFFF"/><path d="M2146.22 1316.89C2145.69 1316.89 2145.18 1316.79 2144.68 1316.59 2143.07 1315.95 2142.03 1314.4 2142.03 1312.69L2142.03 1287 2095.54 1287C2083.35 1287 2073.41 1277.09 2073.41 1264.9L2073.41 1172.34C2073.41 1160.15 2083.32 1150.24 2095.54 1150.24L2277.78 1150.24C2289.97 1150.24 2299.87 1160.15 2299.87 1172.34L2299.87 1264.9C2299.87 1277.09 2289.97 1287 2277.78 1287L2176.18 1287 2149.25 1315.58C2148.44 1316.45 2147.33 1316.89 2146.19 1316.89ZM2095.54 1158.6C2087.99 1158.6 2081.81 1164.75 2081.81 1172.31L2081.81 1264.87C2081.81 1272.42 2087.95 1278.57 2095.54 1278.57L2146.22 1278.57C2148.54 1278.57 2150.42 1280.45 2150.42 1282.77L2150.42 1302.08 2171.34 1279.88C2172.15 1279.04 2173.23 1278.57 2174.4 1278.57L2277.78 1278.57C2285.33 1278.57 2291.48 1272.42 2291.48 1264.87L2291.48 1172.31C2291.48 1164.75 2285.33 1158.6 2277.78 1158.6L2095.54 1158.6Z" stroke="#FFFFFF" stroke-width="3.35861" fill="#FFFFFF"/><path d="M2177.86 1190.54 2101.62 1190.54C2099.31 1190.54 2097.42 1188.66 2097.42 1186.34 2097.42 1184.03 2099.31 1182.15 2101.62 1182.15L2177.86 1182.15C2180.18 1182.15 2182.06 1184.03 2182.06 1186.34 2182.06 1188.66 2180.18 1190.54 2177.86 1190.54Z" stroke="#FFFFFF" stroke-width="3.35861" fill="#FFFFFF"/><path d="M2268.54 1220.77 2101.62 1220.77C2099.31 1220.77 2097.42 1218.89 2097.42 1216.57 2097.42 1214.25 2099.31 1212.37 2101.62 1212.37L2268.54 1212.37C2270.86 1212.37 2272.74 1214.25 2272.74 1216.57 2272.74 1218.89 2270.86 1220.77 2268.54 1220.77Z" stroke="#FFFFFF" stroke-width="3.35861" fill="#FFFFFF"/><path d="M2268.54 1251 2101.62 1251C2099.31 1251 2097.42 1249.11 2097.42 1246.8 2097.42 1244.48 2099.31 1242.6 2101.62 1242.6L2268.54 1242.6C2270.86 1242.6 2272.74 1244.48 2272.74 1246.8 2272.74 1249.11 2270.86 1251 2268.54 1251Z" stroke="#FFFFFF" stroke-width="3.35861" fill="#FFFFFF"/><text fill="#FFFFFF" font-family="MS Gothic,MS Gothic_MSFontService,sans-serif" font-weight="400" font-size="83" transform="matrix(1 0 0 1 2253.05 1166)">中文</text></g></svg>