<svg width="142" height="142" xmlns="http://www.w3.org/2000/svg" xmlns:xlink="http://www.w3.org/1999/xlink" xml:space="preserve" overflow="hidden"><g transform="translate(-587 -430)"><path d="M647.174 561.069C647.034 561.069 646.884 561.039 646.744 560.989 646.433 560.879 646.172 560.638 646.032 560.338L642.766 553.345C639.73 553.785 636.755 553.785 633.719 553.355L631.154 560.037C630.904 560.688 630.182 560.999 629.531 560.759L616.276 555.669C615.634 555.418 615.304 554.697 615.554 554.046L618.34 546.792C616.125 545.049 614.152 543.025 612.448 540.751L605.816 543.706C605.515 543.846 605.165 543.857 604.854 543.736 604.543 543.616 604.293 543.376 604.163 543.075L598.382 530.1C598.101 529.469 598.382 528.728 599.013 528.447L606.227 525.231C606.076 523.959 605.996 522.706 605.996 521.494 605.996 519.971 606.106 518.408 606.337 516.865L599.374 514.05C598.943 513.88 598.602 513.539 598.412 513.108 598.221 512.677 598.221 512.196 598.402 511.755L603.722 498.58C603.902 498.14 604.243 497.799 604.684 497.619 605.124 497.438 605.595 497.438 606.026 497.619L613.651 500.694C615.083 499.011 616.676 497.478 618.41 496.116L615.304 489.132C615.113 488.702 615.103 488.221 615.264 487.78 615.434 487.339 615.765 486.988 616.195 486.798L629.17 481.017C629.591 480.827 630.092 480.817 630.533 480.987 630.954 481.147 631.304 481.478 631.505 481.909L634.881 489.483C637.386 489.223 639.77 489.253 642.285 489.573L645.1 482.43C645.281 481.989 645.621 481.638 646.052 481.458 646.473 481.277 646.954 481.267 647.395 481.438L660.61 486.648C661.051 486.818 661.391 487.149 661.582 487.59 661.772 488.02 661.782 488.501 661.602 488.942L658.576 496.627C660.43 498.15 662.113 499.873 663.576 501.756L670.559 498.721C671 498.53 671.481 498.53 671.922 498.701 672.362 498.871 672.703 499.212 672.883 499.642L678.544 512.657C678.734 513.088 678.744 513.569 678.564 514.01 678.394 514.451 678.053 514.791 677.622 514.982L670.198 518.208C670.318 519.33 670.379 520.432 670.379 521.504 670.379 522.907 670.278 524.339 670.088 525.772L677.001 528.567C677.442 528.748 677.783 529.078 677.963 529.519 678.143 529.95 678.153 530.431 677.973 530.862L672.653 544.037C672.302 544.919 671.24 545.369 670.359 545.009L662.974 542.023C661.522 543.776 659.899 545.359 658.125 546.762L661.171 553.294C661.311 553.595 661.331 553.936 661.211 554.256 661.091 554.577 660.86 554.827 660.56 554.968L647.685 560.969C647.515 561.049 647.335 561.089 647.154 561.089ZM643.517 550.71C643.998 550.71 644.439 550.99 644.65 551.431L647.786 558.154 658.386 553.204 655.44 546.892C655.19 546.351 655.35 545.71 655.831 545.359 657.985 543.766 659.929 541.863 661.602 539.729 661.953 539.288 662.544 539.128 663.055 539.338L670.619 542.394 675.388 530.601 668.255 527.716C667.714 527.495 667.393 526.924 667.493 526.353 667.764 524.73 667.894 523.097 667.894 521.504 667.894 520.252 667.804 518.929 667.623 517.597 667.553 517.046 667.854 516.504 668.365 516.284L675.969 512.978 670.9 501.316 663.696 504.452C663.155 504.682 662.534 504.512 662.183 504.041 660.53 501.776 658.556 499.753 656.322 498.029 655.881 497.689 655.721 497.098 655.921 496.577L659.017 488.722 647.174 484.053 644.269 491.437C644.048 491.988 643.487 492.308 642.906 492.218 639.971 491.747 637.226 491.707 634.29 492.098 633.739 492.168 633.208 491.878 632.977 491.367L629.531 483.632 617.909 488.812 621.125 496.036C621.365 496.577 621.195 497.208 620.724 497.558 618.6 499.111 616.686 500.945 615.033 503.009 614.683 503.44 614.102 503.59 613.591 503.39L605.796 500.244 601.027 512.036 608.23 514.942C608.781 515.162 609.102 515.743 608.992 516.324 608.681 518.067 608.531 519.811 608.531 521.524 608.531 522.917 608.641 524.369 608.862 525.842 608.942 526.393 608.641 526.944 608.13 527.165L601.197 530.251 605.956 540.941 612.368 538.086C612.919 537.845 613.56 538.015 613.901 538.506 615.765 541.161 618.019 543.476 620.594 545.389 621.045 545.72 621.215 546.321 621.015 546.842L618.34 553.805 629.26 557.993 631.735 551.531C631.945 550.97 632.537 550.639 633.118 550.75 636.524 551.341 639.881 551.341 643.277 550.75 643.347 550.74 643.417 550.73 643.487 550.73ZM670.349 543.075C670.349 543.075 670.349 543.075 670.349 543.075L670.349 543.075ZM671.31 542.664 671.31 542.664C671.31 542.664 671.31 542.664 671.31 542.664ZM676.27 513.639C676.27 513.639 676.27 513.639 676.27 513.639 676.27 513.639 676.27 513.639 676.27 513.639L676.27 513.639ZM676.65 512.667C676.65 512.667 676.65 512.667 676.65 512.667L676.65 512.667ZM600.345 511.725 600.345 511.725C600.345 511.725 600.345 511.725 600.345 511.725ZM670.609 500.614C670.609 500.614 670.609 500.614 670.609 500.624L670.609 500.624ZM605.114 499.933C605.114 499.933 605.114 499.933 605.114 499.933L605.114 499.933ZM617.247 489.092 617.247 489.092C617.247 489.092 617.247 489.092 617.247 489.092ZM659.708 488.982C659.708 488.982 659.708 488.982 659.708 488.982L659.708 488.982ZM646.493 483.772C646.493 483.772 646.493 483.772 646.493 483.772L646.493 483.772ZM630.232 483.311 630.222 483.311C630.222 483.311 630.222 483.311 630.232 483.311ZM638.207 546.141C636.053 546.141 633.849 545.84 631.665 545.239 629 544.508 626.525 543.376 624.321 541.883 623.88 541.582 623.469 541.262 623.049 540.941L622.948 540.861C616.857 536.102 613.37 528.968 613.37 521.304 613.37 507.608 624.511 496.466 638.207 496.466 651.903 496.466 663.045 507.608 663.045 521.304 663.045 528.968 659.558 536.092 653.486 540.851L653.486 540.851 652.715 539.869 653.446 540.891C653.005 541.242 652.555 541.592 652.084 541.903 649.88 543.396 647.415 544.518 644.76 545.239 642.576 545.84 640.371 546.141 638.217 546.141ZM638.207 498.971C625.894 498.971 615.875 508.99 615.875 521.304 615.875 528.197 619.011 534.609 624.491 538.887L624.591 538.967C624.962 539.258 625.333 539.548 625.724 539.809 627.707 541.151 629.922 542.163 632.326 542.815 636.274 543.897 640.141 543.897 644.089 542.815 646.483 542.163 648.697 541.151 650.671 539.809 651.092 539.528 651.493 539.208 651.893 538.897L652.705 539.849 651.933 538.867C657.404 534.589 660.53 528.177 660.53 521.294 660.53 508.98 650.511 498.961 638.197 498.961Z" fill="#FFFFFF"/><path d="M709.733 479.735 716.216 479.735 716.216 469.235 710.054 469.235C709.773 467.892 709.393 466.57 708.872 465.277 708.481 464.315 708.02 463.414 707.519 462.542L712.208 457.773C712.338 457.643 712.338 457.422 712.208 457.292L704.724 449.938C704.664 449.878 704.574 449.838 704.483 449.838 704.373 449.808 704.303 449.878 704.243 449.938L699.774 454.477C697.921 453.324 695.907 452.433 693.803 451.842L693.743 445.049C693.743 444.858 693.603 444.678 693.402 444.708L682.902 444.798C682.712 444.798 682.562 444.958 682.562 445.139L682.622 451.561C681.45 451.832 680.267 452.162 679.115 452.633 678.153 453.024 677.252 453.485 676.38 453.986L671.481 449.257C671.35 449.126 671.13 449.126 671 449.257L663.706 456.811C663.576 456.951 663.576 457.162 663.706 457.292L668.315 461.74C667.233 463.484 666.371 465.357 665.79 467.331L659.027 467.331C658.837 467.331 658.686 467.481 658.686 467.672L658.686 478.172C658.686 478.362 658.837 478.512 659.027 478.512L665.319 478.512C665.589 479.815 665.96 481.117 666.481 482.4 666.862 483.331 667.303 484.223 667.784 485.075L663.175 489.844C663.045 489.984 663.045 490.194 663.175 490.325L670.729 497.619C670.799 497.679 670.88 497.719 670.97 497.719 671.06 497.719 671.15 497.689 671.21 497.619L675.508 493.17C677.412 494.362 679.476 495.264 681.64 495.865L681.75 502.408C681.75 502.498 681.79 502.588 681.85 502.648 681.91 502.708 682.001 502.748 682.091 502.748L682.091 502.748 692.591 502.568C692.681 502.568 692.771 502.528 692.831 502.468 692.891 502.408 692.931 502.318 692.931 502.227L692.821 496.096C693.963 495.825 695.116 495.495 696.238 495.044 697.36 494.593 698.412 494.042 699.424 493.431L704.193 497.879C704.253 497.939 704.343 497.969 704.423 497.969L704.433 497.969C704.523 497.969 704.614 497.929 704.674 497.859L711.837 490.184C711.897 490.114 711.928 490.034 711.928 489.944 711.928 489.854 711.887 489.764 711.817 489.704L707.319 485.506C707.83 484.634 708.321 483.732 708.721 482.78 709.142 481.788 709.463 480.767 709.743 479.745ZM703.141 480.416C702.73 481.378 702.209 482.269 701.648 483.121 701.468 483.402 701.267 483.672 701.067 483.943 700.917 484.143 700.776 484.363 700.616 484.554 699.764 485.626 698.803 486.598 697.721 487.449 697.4 487.7 697.069 487.96 696.729 488.191 694.013 490.014 690.737 491.086 687.231 491.086 683.363 491.086 679.806 489.784 676.941 487.61 676.62 487.369 676.31 487.119 676.009 486.848 672.422 483.712 670.148 479.123 670.148 474.004 670.148 464.586 677.813 456.921 687.231 456.921 689.054 456.921 690.797 457.212 692.451 457.743 697.19 459.155 701.267 462.622 703.251 467.551 704.934 471.719 704.894 476.288 703.141 480.416Z" fill="#FFFFFF"/></g></svg>