<svg width="142" height="142" xmlns="http://www.w3.org/2000/svg" xmlns:xlink="http://www.w3.org/1999/xlink" xml:space="preserve" overflow="hidden"><g transform="translate(-856 -218)"><path d="M898.821 303.072 861.921 303.072C861.51 303.072 861.13 302.871 860.889 302.531 860.659 302.19 860.599 301.759 860.749 301.379L865.588 288.504 860.739 275.539C860.599 275.159 860.649 274.728 860.879 274.387 861.11 274.047 861.5 273.846 861.911 273.846L898.811 273.846C899.332 273.846 899.803 274.167 899.984 274.658L904.993 288.063C905.103 288.344 905.103 288.654 904.993 288.945L899.984 302.26C899.803 302.751 899.332 303.072 898.811 303.072ZM863.725 300.567 897.95 300.567 902.488 288.504 897.95 276.351 863.725 276.351 868.103 288.063C868.213 288.344 868.213 288.654 868.103 288.945L863.735 300.567Z" fill="#FFFFFF"/><path d="M942.905 303.072 906.005 303.072C905.594 303.072 905.214 302.871 904.973 302.531 904.743 302.19 904.683 301.759 904.833 301.379L909.672 288.504 904.823 275.539C904.683 275.159 904.733 274.728 904.963 274.387 905.194 274.047 905.584 273.846 905.995 273.846L942.895 273.846C943.416 273.846 943.887 274.167 944.067 274.658L949.077 288.063C949.187 288.344 949.187 288.654 949.077 288.945L944.067 302.26C943.887 302.751 943.416 303.072 942.895 303.072ZM907.809 300.567 942.034 300.567 946.572 288.504 942.034 276.351 907.809 276.351 912.187 288.063C912.297 288.344 912.297 288.654 912.187 288.945L907.819 300.567Z" fill="#FFFFFF"/><path d="M986.989 301.819 950.089 301.819 955.098 288.504 950.089 275.099 986.989 275.099 991.999 288.504 986.989 301.819Z" fill="#FFFFFF"/><path d="M986.989 303.072 950.089 303.072C949.678 303.072 949.297 302.871 949.057 302.531 948.827 302.19 948.766 301.759 948.917 301.379L953.756 288.504 948.907 275.539C948.766 275.159 948.816 274.728 949.047 274.387 949.277 274.047 949.668 273.846 950.079 273.846L986.979 273.846C987.5 273.846 987.971 274.167 988.151 274.658L993.161 288.063C993.271 288.344 993.271 288.654 993.161 288.945L988.151 302.26C987.971 302.751 987.5 303.072 986.979 303.072ZM951.892 300.567 986.117 300.567 990.656 288.504 986.117 276.351 951.892 276.351 956.271 288.063C956.381 288.344 956.381 288.654 956.271 288.945L951.902 300.567Z" fill="#FFFFFF"/></g></svg>