<svg width="265" height="265" xmlns="http://www.w3.org/2000/svg" xmlns:xlink="http://www.w3.org/1999/xlink" xml:space="preserve" overflow="hidden"><g transform="translate(-995 -1459)"><path d="M999.5 1591.5C999.5 1520.81 1056.81 1463.5 1127.5 1463.5 1198.19 1463.5 1255.5 1520.81 1255.5 1591.5 1255.5 1662.19 1198.19 1719.5 1127.5 1719.5 1056.81 1719.5 999.5 1662.19 999.5 1591.5Z" stroke="#FFFFFF" stroke-width="9.16667" stroke-linejoin="round" stroke-miterlimit="10" fill="none" fill-rule="evenodd"/><path d="M1171.89 1639C1168.45 1644.89 1163.38 1649.75 1156.71 1653.56 1150.04 1657.38 1142.15 1659.6 1133.08 1660.26L1133.08 1676 1120.64 1676 1120.64 1660.08C1107.68 1658.9 1097.22 1655.02 1089.3 1648.33 1081.38 1641.67 1077.31 1632.62 1077.03 1621.24L1106.22 1621.24C1106.99 1630.57 1111.78 1636.19 1120.61 1638.13L1120.61 1601.02C1111.26 1598.7 1103.75 1596.38 1098.02 1594.02 1092.32 1591.69 1087.39 1587.91 1083.22 1582.75 1079.08 1577.58 1077 1570.5 1077 1561.56 1077 1550.29 1081.07 1541.1 1089.16 1533.99 1097.26 1526.88 1107.75 1522.79 1120.57 1521.74L1120.57 1506 1133.01 1506 1133.01 1521.74C1145.45 1522.79 1155.42 1526.53 1162.89 1533.02 1170.36 1539.5 1174.53 1548.41 1175.44 1559.82L1146.04 1559.82C1145.66 1556.08 1144.3 1552.82 1142.05 1550.01 1139.79 1547.23 1136.76 1545.26 1133.01 1544.08L1133.01 1580.77C1142.74 1583.23 1150.42 1585.59 1156.08 1587.84 1161.71 1590.1 1166.61 1593.81 1170.78 1598.91 1174.92 1604 1177 1611.05 1177 1619.99 1177 1626.72 1175.3 1633.03 1171.86 1638.93ZM1109.35 1570.64C1111.95 1573.31 1115.71 1575.46 1120.64 1577.16L1120.64 1543.56C1115.99 1544.22 1112.27 1545.95 1109.56 1548.8 1106.85 1551.64 1105.46 1555.45 1105.46 1560.24 1105.46 1564.5 1106.74 1567.97 1109.35 1570.64ZM1144.65 1632.51C1147.43 1629.39 1148.82 1625.65 1148.82 1621.24 1148.82 1616.84 1147.47 1613.54 1144.72 1610.94 1141.98 1608.34 1138.12 1606.22 1133.05 1604.53L1133.05 1638.51C1137.98 1637.61 1141.84 1635.6 1144.62 1632.48Z" fill="#FFFFFF" fill-rule="evenodd"/></g></svg>