<svg width="116" height="116" xmlns="http://www.w3.org/2000/svg" xmlns:xlink="http://www.w3.org/1999/xlink" xml:space="preserve" overflow="hidden"><g transform="translate(-801 -393)"><path d="M887.757 436.828 879.916 436.828C876.151 436.828 873.09 433.767 873.09 430.002L873.09 409.729C873.09 409.165 873.548 408.706 874.113 408.706 874.678 408.706 875.136 409.165 875.136 409.729L875.136 430.002C875.136 432.638 877.28 434.782 879.916 434.782L887.757 434.782C888.321 434.782 888.78 435.241 888.78 435.805 888.78 436.37 888.321 436.828 887.757 436.828Z" fill="#FFFFFF"/><path d="M848.209 491.714C847.644 491.714 847.186 491.256 847.186 490.691L847.186 459.999C847.186 457.363 845.041 455.219 842.406 455.219L833.73 455.219C833.165 455.219 832.707 454.761 832.707 454.196 832.707 453.631 833.165 453.173 833.73 453.173L842.406 453.173C846.171 453.173 849.232 456.234 849.232 459.999L849.232 490.691C849.232 491.256 848.773 491.714 848.209 491.714Z" fill="#FFFFFF"/><path d="M856.328 491.714C855.763 491.714 855.305 491.256 855.305 490.691L855.305 448.246C855.305 445.61 852.931 443.466 850.009 443.466L817.369 443.466C816.804 443.466 816.346 443.008 816.346 442.443 816.346 441.878 816.804 441.42 817.369 441.42L850.009 441.42C854.061 441.42 857.351 444.481 857.351 448.246L857.351 490.691C857.351 491.256 856.892 491.714 856.328 491.714Z" fill="#FFFFFF"/><path d="M865.331 491.714C864.766 491.714 864.308 491.256 864.308 490.691L864.308 436.337C864.308 433.702 862.163 431.558 859.528 431.558L851.204 431.558C850.639 431.558 850.181 431.099 850.181 430.534 850.181 429.97 850.639 429.511 851.204 429.511L859.528 429.511C863.293 429.511 866.354 432.572 866.354 436.337L866.354 490.691C866.354 491.256 865.896 491.714 865.331 491.714Z" fill="#FFFFFF"/><path d="M874.113 491.714C873.548 491.714 873.09 491.256 873.09 490.691L873.09 463.42C873.09 459.655 876.151 456.594 879.916 456.594L887.757 456.594C888.321 456.594 888.78 457.052 888.78 457.617 888.78 458.182 888.321 458.64 887.757 458.64L879.916 458.64C877.28 458.64 875.136 460.785 875.136 463.42L875.136 490.691C875.136 491.256 874.678 491.714 874.113 491.714Z" fill="#FFFFFF"/><path d="M894.001 442.656C890.22 442.656 887.151 439.578 887.151 435.805 887.151 432.032 890.228 428.955 894.001 428.955 897.774 428.955 900.852 432.032 900.852 435.805 900.852 439.578 897.774 442.656 894.001 442.656ZM894.001 430.993C891.35 430.993 889.197 433.145 889.197 435.797 889.197 438.449 891.35 440.602 894.001 440.602 896.653 440.602 898.806 438.449 898.806 435.797 898.806 433.145 896.653 430.993 894.001 430.993Z" fill="#FFFFFF"/><path d="M894.001 464.468C890.22 464.468 887.151 461.39 887.151 457.617 887.151 453.844 890.228 450.767 894.001 450.767 897.774 450.767 900.852 453.844 900.852 457.617 900.852 461.39 897.774 464.468 894.001 464.468ZM894.001 452.805C891.35 452.805 889.197 454.957 889.197 457.609 889.197 460.261 891.35 462.413 894.001 462.413 896.653 462.413 898.806 460.261 898.806 457.609 898.806 454.957 896.653 452.805 894.001 452.805Z" fill="#FFFFFF"/><path d="M827.911 460.981C824.13 460.981 821.06 457.904 821.06 454.131 821.06 450.358 824.138 447.28 827.911 447.28 831.684 447.28 834.761 450.358 834.761 454.131 834.761 457.904 831.684 460.981 827.911 460.981ZM827.911 449.318C825.259 449.318 823.107 451.471 823.107 454.122 823.107 456.774 825.259 458.927 827.911 458.927 830.563 458.927 832.715 456.774 832.715 454.122 832.715 451.471 830.563 449.318 827.911 449.318Z" fill="#FFFFFF"/><path d="M844.476 437.647C840.695 437.647 837.626 434.569 837.626 430.796 837.626 427.023 840.703 423.946 844.476 423.946 848.25 423.946 851.327 427.023 851.327 430.796 851.327 434.569 848.25 437.647 844.476 437.647ZM844.476 425.984C841.825 425.984 839.672 428.136 839.672 430.788 839.672 433.44 841.825 435.593 844.476 435.593 847.128 435.593 849.281 433.44 849.281 430.788 849.281 428.136 847.128 425.984 844.476 425.984Z" fill="#FFFFFF"/><path d="M817.426 409.975C817.975 409.124 818.875 408.69 820.144 408.69 821.412 408.69 822.313 409.115 822.861 409.975 823.409 410.834 823.679 412.013 823.679 413.527 823.679 415.041 823.409 416.236 822.861 417.104 822.313 417.971 821.412 418.397 820.144 418.397 818.875 418.397 817.975 417.963 817.426 417.104 816.878 416.236 816.608 415.049 816.608 413.527 816.608 412.005 816.878 410.834 817.426 409.975ZM821.748 411.89C821.666 411.448 821.502 411.088 821.249 410.81 821.003 410.531 820.635 410.392 820.144 410.392 819.653 410.392 819.284 410.531 819.039 410.81 818.793 411.088 818.621 411.448 818.54 411.89 818.458 412.332 818.417 412.872 818.417 413.519 818.417 414.165 818.458 414.738 818.531 415.188 818.613 415.639 818.777 415.999 819.031 416.277 819.284 416.555 819.653 416.686 820.144 416.686 820.635 416.686 821.003 416.547 821.257 416.277 821.511 415.999 821.674 415.639 821.756 415.188 821.838 414.738 821.871 414.182 821.871 413.519 821.871 412.856 821.83 412.332 821.748 411.89Z" fill="#FFFFFF"/><path d="M825.889 409.975C826.438 409.124 827.338 408.69 828.607 408.69 829.875 408.69 830.776 409.115 831.324 409.975 831.872 410.834 832.142 412.013 832.142 413.527 832.142 415.041 831.872 416.236 831.324 417.104 830.776 417.971 829.875 418.397 828.607 418.397 827.338 418.397 826.438 417.963 825.889 417.104 825.341 416.236 825.071 415.049 825.071 413.527 825.071 412.005 825.341 410.834 825.889 409.975ZM830.211 411.89C830.129 411.448 829.965 411.088 829.711 410.81 829.466 410.531 829.098 410.392 828.607 410.392 828.115 410.392 827.747 410.531 827.502 410.81 827.256 411.088 827.084 411.448 827.002 411.89 826.921 412.332 826.88 412.872 826.88 413.519 826.88 414.165 826.921 414.738 826.994 415.188 827.076 415.639 827.24 415.999 827.493 416.277 827.747 416.555 828.115 416.686 828.607 416.686 829.098 416.686 829.466 416.547 829.72 416.277 829.973 415.999 830.137 415.639 830.219 415.188 830.301 414.738 830.333 414.182 830.333 413.519 830.333 412.856 830.293 412.332 830.211 411.89Z" fill="#FFFFFF"/><path d="M834.876 409.975C835.424 409.124 836.325 408.69 837.593 408.69 838.862 408.69 839.762 409.115 840.311 409.975 840.859 410.834 841.129 412.013 841.129 413.527 841.129 415.041 840.859 416.236 840.311 417.104 839.762 417.971 838.862 418.397 837.593 418.397 836.325 418.397 835.424 417.963 834.876 417.104 834.328 416.236 834.057 415.049 834.057 413.527 834.057 412.005 834.328 410.834 834.876 409.975ZM839.197 411.89C839.116 411.448 838.952 411.088 838.698 410.81 838.444 410.531 838.084 410.392 837.593 410.392 837.102 410.392 836.734 410.531 836.488 410.81 836.243 411.088 836.071 411.448 835.989 411.89 835.907 412.332 835.866 412.872 835.866 413.519 835.866 414.165 835.907 414.738 835.981 415.188 836.063 415.639 836.226 415.999 836.48 416.277 836.734 416.555 837.102 416.686 837.593 416.686 838.084 416.686 838.453 416.547 838.706 416.277 838.96 416.007 839.124 415.639 839.206 415.188 839.287 414.738 839.32 414.182 839.32 413.519 839.32 412.856 839.279 412.332 839.197 411.89Z" fill="#FFFFFF"/><path d="M844.116 409.975C844.665 409.124 845.565 408.69 846.834 408.69 848.102 408.69 849.003 409.115 849.551 409.975 850.099 410.834 850.369 412.013 850.369 413.527 850.369 415.041 850.099 416.236 849.551 417.104 849.003 417.971 848.102 418.397 846.834 418.397 845.565 418.397 844.665 417.963 844.116 417.104 843.568 416.236 843.298 415.049 843.298 413.527 843.298 412.005 843.568 410.834 844.116 409.975ZM848.438 411.89C848.356 411.448 848.192 411.088 847.939 410.81 847.685 410.531 847.325 410.392 846.834 410.392 846.343 410.392 845.974 410.531 845.729 410.81 845.483 411.088 845.311 411.448 845.229 411.89 845.148 412.332 845.107 412.872 845.107 413.519 845.107 414.165 845.148 414.738 845.221 415.188 845.303 415.639 845.467 415.999 845.721 416.277 845.974 416.555 846.343 416.686 846.834 416.686 847.325 416.686 847.693 416.547 847.947 416.277 848.2 416.007 848.364 415.639 848.446 415.188 848.528 414.738 848.561 414.182 848.561 413.519 848.561 412.856 848.52 412.332 848.438 411.89Z" fill="#FFFFFF"/><path d="M817.426 424.756C817.975 423.905 818.875 423.471 820.144 423.471 821.412 423.471 822.313 423.897 822.861 424.756 823.409 425.616 823.679 426.794 823.679 428.308 823.679 429.822 823.409 431.017 822.861 431.885 822.313 432.753 821.412 433.178 820.144 433.178 818.875 433.178 817.975 432.744 817.426 431.885 816.878 431.017 816.608 429.831 816.608 428.308 816.608 426.786 816.878 425.616 817.426 424.756ZM821.748 426.671C821.666 426.229 821.502 425.869 821.249 425.591 821.003 425.313 820.635 425.174 820.144 425.174 819.653 425.174 819.284 425.313 819.039 425.591 818.793 425.869 818.621 426.229 818.54 426.671 818.458 427.113 818.417 427.654 818.417 428.3 818.417 428.947 818.458 429.52 818.531 429.97 818.613 430.42 818.777 430.78 819.031 431.058 819.284 431.337 819.653 431.467 820.144 431.467 820.635 431.467 821.003 431.328 821.257 431.058 821.511 430.78 821.674 430.42 821.756 429.97 821.838 429.52 821.871 428.963 821.871 428.3 821.871 427.637 821.83 427.113 821.748 426.671Z" fill="#FFFFFF"/><path d="M824.85 425.345 824.85 423.659 828.009 423.659 828.009 433.203 826.127 433.203 826.127 425.345 824.858 425.345Z" fill="#FFFFFF"/><path d="M872.14 443.392 872.14 441.706 875.3 441.706 875.3 451.25 873.417 451.25 873.417 443.392 872.148 443.392Z" fill="#FFFFFF"/><path d="M877.657 442.803C878.205 441.952 879.105 441.518 880.374 441.518 881.643 441.518 882.543 441.944 883.091 442.803 883.64 443.663 883.91 444.841 883.91 446.355 883.91 447.869 883.64 449.064 883.091 449.932 882.543 450.799 881.643 451.225 880.374 451.225 879.105 451.225 878.205 450.791 877.657 449.932 877.108 449.064 876.838 447.878 876.838 446.355 876.838 444.833 877.108 443.663 877.657 442.803ZM881.978 444.718C881.896 444.276 881.733 443.916 881.479 443.638 881.225 443.36 880.865 443.221 880.374 443.221 879.883 443.221 879.515 443.36 879.269 443.638 879.024 443.916 878.852 444.276 878.77 444.718 878.688 445.16 878.647 445.701 878.647 446.347 878.647 446.994 878.688 447.567 878.762 448.017 878.844 448.467 879.007 448.827 879.261 449.105 879.515 449.384 879.883 449.514 880.374 449.514 880.865 449.514 881.233 449.375 881.487 449.105 881.741 448.835 881.905 448.467 881.986 448.017 882.068 447.567 882.101 447.01 882.101 446.347 882.101 445.684 882.06 445.16 881.978 444.718Z" fill="#FFFFFF"/><path d="M884.556 443.392 884.556 441.706 887.716 441.706 887.716 451.25 885.833 451.25 885.833 443.392 884.565 443.392Z" fill="#FFFFFF"/><path d="M817.467 467.504C818.016 466.653 818.916 466.219 820.185 466.219 821.453 466.219 822.354 466.645 822.902 467.504 823.45 468.364 823.72 469.542 823.72 471.056 823.72 472.57 823.45 473.765 822.902 474.633 822.354 475.501 821.453 475.926 820.185 475.926 818.916 475.926 818.016 475.492 817.467 474.633 816.919 473.765 816.649 472.579 816.649 471.056 816.649 469.534 816.919 468.364 817.467 467.504ZM821.789 469.419C821.707 468.977 821.543 468.617 821.29 468.339 821.044 468.061 820.668 467.922 820.185 467.922 819.702 467.922 819.325 468.061 819.08 468.339 818.834 468.617 818.662 468.977 818.58 469.419 818.499 469.861 818.458 470.402 818.458 471.048 818.458 471.695 818.499 472.268 818.572 472.718 818.654 473.168 818.818 473.528 819.072 473.806 819.325 474.085 819.694 474.216 820.185 474.216 820.676 474.216 821.044 474.076 821.298 473.806 821.551 473.528 821.715 473.168 821.797 472.718 821.879 472.268 821.912 471.711 821.912 471.048 821.912 470.385 821.871 469.861 821.789 469.419Z" fill="#FFFFFF"/><path d="M824.883 468.093 824.883 466.407 828.042 466.407 828.042 475.951 826.159 475.951 826.159 468.093 824.891 468.093Z" fill="#FFFFFF"/><path d="M829.36 468.093 829.36 466.407 832.519 466.407 832.519 475.951 830.636 475.951 830.636 468.093 829.368 468.093Z" fill="#FFFFFF"/><path d="M835.146 467.504C835.694 466.653 836.595 466.219 837.863 466.219 839.132 466.219 840.032 466.645 840.581 467.504 841.129 468.364 841.399 469.542 841.399 471.056 841.399 472.57 841.129 473.765 840.581 474.633 840.032 475.501 839.132 475.926 837.863 475.926 836.595 475.926 835.694 475.492 835.146 474.633 834.598 473.765 834.328 472.579 834.328 471.056 834.328 469.534 834.598 468.364 835.146 467.504ZM839.468 469.419C839.386 468.977 839.222 468.617 838.968 468.339 838.715 468.061 838.354 467.922 837.863 467.922 837.372 467.922 837.004 468.061 836.758 468.339 836.513 468.617 836.341 468.977 836.259 469.419 836.177 469.861 836.136 470.402 836.136 471.048 836.136 471.695 836.177 472.268 836.251 472.718 836.333 473.168 836.497 473.528 836.75 473.806 837.004 474.085 837.372 474.216 837.863 474.216 838.354 474.216 838.723 474.076 838.976 473.806 839.23 473.536 839.394 473.168 839.476 472.718 839.558 472.268 839.59 471.711 839.59 471.048 839.59 470.385 839.549 469.861 839.468 469.419Z" fill="#FFFFFF"/><path d="M842.561 468.093 842.561 466.407 845.721 466.407 845.721 475.951 843.838 475.951 843.838 468.093 842.569 468.093Z" fill="#FFFFFF"/><path d="M817.467 483.407C818.016 482.556 818.916 482.122 820.185 482.122 821.453 482.122 822.354 482.547 822.902 483.407 823.45 484.266 823.72 485.445 823.72 486.959 823.72 488.473 823.45 489.668 822.902 490.536 822.354 491.403 821.453 491.829 820.185 491.829 818.916 491.829 818.016 491.395 817.467 490.536 816.919 489.668 816.649 488.481 816.649 486.959 816.649 485.437 816.919 484.266 817.467 483.407ZM821.789 485.322C821.707 484.88 821.543 484.52 821.29 484.242 821.044 483.963 820.668 483.824 820.185 483.824 819.702 483.824 819.325 483.963 819.08 484.242 818.834 484.52 818.662 484.88 818.58 485.322 818.499 485.764 818.458 486.304 818.458 486.951 818.458 487.597 818.499 488.17 818.572 488.62 818.654 489.071 818.818 489.431 819.072 489.709 819.325 489.987 819.694 490.118 820.185 490.118 820.676 490.118 821.044 489.979 821.298 489.709 821.551 489.431 821.715 489.071 821.797 488.62 821.879 488.17 821.912 487.614 821.912 486.951 821.912 486.288 821.871 485.764 821.789 485.322Z" fill="#FFFFFF"/><path d="M825.922 483.407C826.47 482.556 827.371 482.122 828.639 482.122 829.908 482.122 830.808 482.547 831.357 483.407 831.905 484.266 832.175 485.445 832.175 486.959 832.175 488.473 831.905 489.668 831.357 490.536 830.808 491.403 829.908 491.829 828.639 491.829 827.371 491.829 826.47 491.395 825.922 490.536 825.374 489.668 825.104 488.481 825.104 486.959 825.104 485.437 825.374 484.266 825.922 483.407ZM830.243 485.322C830.162 484.88 829.998 484.52 829.744 484.242 829.499 483.963 829.122 483.824 828.639 483.824 828.156 483.824 827.78 483.963 827.534 484.242 827.289 484.52 827.117 484.88 827.035 485.322 826.953 485.764 826.912 486.304 826.912 486.951 826.912 487.597 826.953 488.17 827.027 488.62 827.109 489.071 827.272 489.431 827.526 489.709 827.78 489.987 828.148 490.118 828.639 490.118 829.13 490.118 829.499 489.979 829.752 489.709 830.006 489.431 830.17 489.071 830.252 488.62 830.333 488.17 830.366 487.614 830.366 486.951 830.366 486.288 830.325 485.764 830.243 485.322Z" fill="#FFFFFF"/><path d="M833.345 483.996 833.345 482.31 836.505 482.31 836.505 491.853 834.622 491.853 834.622 483.996 833.354 483.996Z" fill="#FFFFFF"/><path d="M837.299 483.996 837.299 482.31 840.458 482.31 840.458 491.853 838.575 491.853 838.575 483.996 837.307 483.996Z" fill="#FFFFFF"/><path d="M843.077 483.407C843.625 482.556 844.526 482.122 845.794 482.122 847.063 482.122 847.963 482.547 848.511 483.407 849.06 484.266 849.33 485.445 849.33 486.959 849.33 488.473 849.06 489.668 848.511 490.536 847.963 491.403 847.063 491.829 845.794 491.829 844.526 491.829 843.625 491.395 843.077 490.536 842.529 489.668 842.258 488.481 842.258 486.959 842.258 485.437 842.529 484.266 843.077 483.407ZM847.398 485.322C847.317 484.88 847.153 484.52 846.899 484.242 846.654 483.963 846.285 483.824 845.794 483.824 845.303 483.824 844.935 483.963 844.689 484.242 844.444 484.52 844.272 484.88 844.19 485.322 844.108 485.764 844.067 486.304 844.067 486.951 844.067 487.597 844.108 488.17 844.182 488.62 844.264 489.071 844.427 489.431 844.681 489.709 844.935 489.987 845.303 490.118 845.794 490.118 846.285 490.118 846.654 489.979 846.907 489.709 847.161 489.431 847.325 489.071 847.407 488.62 847.488 488.17 847.521 487.614 847.521 486.951 847.521 486.288 847.48 485.764 847.398 485.322Z" fill="#FFFFFF"/></g></svg>