<svg width="142" height="142" xmlns="http://www.w3.org/2000/svg" xmlns:xlink="http://www.w3.org/1999/xlink" xml:space="preserve" overflow="hidden"><g transform="translate(-605 -341)"><path d="M714.889 443.685 701.113 443.685C700.782 443.685 700.462 443.555 700.231 443.315L694.991 438.075C694.761 437.844 694.62 437.524 694.62 437.193L694.62 407.577C694.62 406.885 695.181 406.324 695.873 406.324 696.564 406.324 697.125 406.885 697.125 407.577L697.125 436.672 701.634 441.18 714.378 441.18 719.237 436.321 719.237 432.113 712.785 432.113C712.094 432.113 711.533 431.552 711.533 430.861L711.533 425.681C711.533 425.35 711.663 425.03 711.903 424.799L721.231 415.472C721.722 414.981 722.513 414.981 723.004 415.472 723.495 415.963 723.495 416.754 723.004 417.245L714.047 426.212 714.047 429.629 722.333 429.629 728.365 423.597 728.365 413.538 720.349 405.523 706.112 419.76C705.621 420.251 704.83 420.251 704.339 419.76 703.848 419.269 703.848 418.477 704.339 417.986L719.097 403.228 719.097 397.718 713.186 391.807 713.186 398.008C713.186 398.339 713.055 398.66 712.815 398.89L703.247 408.458C702.756 408.949 701.964 408.949 701.473 408.458 700.983 407.967 700.983 407.176 701.473 406.685L710.681 397.477 710.681 387.258 694.64 378.03 687.467 385.204 688.639 386.376C688.87 386.607 689.01 386.927 689.01 387.258L689.01 441.391C689.01 442.082 688.449 442.643 687.757 442.643 687.066 442.643 686.505 442.082 686.505 441.391L686.505 387.769 680.634 381.898 680.634 402.527C680.634 403.218 680.073 403.779 679.381 403.779 678.69 403.779 678.129 403.218 678.129 402.527L678.129 379.393 674.001 375.265 663.672 378.612 669.994 384.934C670.484 385.424 670.484 386.216 669.994 386.707 669.503 387.198 668.711 387.198 668.22 386.707L660.986 379.473 650.356 382.91 663.722 396.275C664.213 396.766 664.213 397.558 663.722 398.048 663.231 398.539 662.439 398.539 661.948 398.048L647.681 383.771 646.89 384.032 639.726 391.195 640.928 391.195C641.259 391.195 641.58 391.326 641.81 391.566L660.265 410.021C660.756 410.512 660.756 411.304 660.265 411.795 659.774 412.286 658.983 412.286 658.492 411.795L640.407 393.71 638.684 393.71 638.684 406.034C638.684 406.725 638.123 407.286 637.432 407.286 636.74 407.286 636.179 406.725 636.179 406.034L636.179 393.71 633.725 393.71 624.176 403.258 624.176 414.78 629.316 419.92 650.607 419.92C651.298 419.92 651.859 420.481 651.859 421.172 651.859 421.864 651.298 422.425 650.607 422.425L631.861 422.425 639.616 430.18 665.074 430.18C665.766 430.18 666.327 430.741 666.327 431.432 666.327 432.123 665.766 432.684 665.074 432.684L651.038 432.684 654.775 437.293 677.458 437.293 681.576 433.175 681.576 425.16 677.768 421.353C677.277 420.862 677.277 420.07 677.768 419.579 678.259 419.089 679.051 419.089 679.542 419.579L683.72 423.757C683.95 423.988 684.09 424.308 684.09 424.639L684.09 433.696C684.09 434.027 683.96 434.348 683.72 434.578L678.87 439.427C678.64 439.658 678.319 439.798 677.989 439.798L654.194 439.798C653.813 439.798 653.462 439.628 653.222 439.337L647.821 432.684 639.105 432.684C638.774 432.684 638.454 432.554 638.223 432.314L628.124 422.214C628.044 422.164 627.974 422.114 627.914 422.044L622.042 416.173C621.812 415.943 621.672 415.622 621.672 415.291L621.672 402.727C621.672 402.397 621.802 402.076 622.042 401.846L632.322 391.566C632.552 391.336 632.873 391.195 633.204 391.195L636.289 391.195C636.35 391.065 636.44 390.935 636.54 390.835L645.317 382.058C645.457 381.918 645.627 381.818 645.818 381.747L647.591 381.176C647.591 381.176 647.641 381.156 647.671 381.146L660.876 376.868C660.876 376.868 660.956 376.838 660.996 376.828L673.951 372.64C674.392 372.5 674.893 372.61 675.224 372.951L685.703 383.431 693.558 375.576C693.959 375.175 694.58 375.095 695.071 375.375L712.575 385.434C712.965 385.655 713.206 386.076 713.206 386.517L713.206 388.23 721.251 396.275C721.482 396.506 721.622 396.826 721.622 397.157L721.622 403.178 730.519 412.075C730.759 412.316 730.889 412.626 730.889 412.967L730.889 424.068C730.889 424.399 730.759 424.719 730.519 424.95L723.746 431.723C723.515 431.953 723.195 432.093 722.864 432.093L721.762 432.093 721.762 436.812C721.762 437.143 721.632 437.463 721.391 437.694L715.801 443.284C715.57 443.515 715.25 443.655 714.919 443.655Z" fill="#FFFFFF"/><path d="M675.945 413.538C673.51 413.538 671.526 415.522 671.526 417.956 671.526 420.391 673.51 422.375 675.945 422.375 678.38 422.375 680.363 420.391 680.363 417.956 680.363 415.522 678.38 413.538 675.945 413.538M675.945 415.963C677.047 415.963 677.949 416.854 677.949 417.966 677.949 419.078 677.057 419.97 675.945 419.97 674.833 419.97 673.941 419.078 673.941 417.966 673.941 416.854 674.833 415.963 675.945 415.963" fill="#FFFFFF"/><path d="M695.863 399.161C693.428 399.161 691.444 401.144 691.444 403.579 691.444 406.014 693.428 407.997 695.863 407.997 698.297 407.997 700.281 406.014 700.281 403.579 700.281 401.144 698.297 399.161 695.863 399.161M695.863 401.585C696.965 401.585 697.867 402.477 697.867 403.589 697.867 404.701 696.975 405.593 695.863 405.593 694.751 405.593 693.859 404.701 693.859 403.589 693.859 402.477 694.751 401.585 695.863 401.585" fill="#FFFFFF"/><path d="M687.737 441.411C685.303 441.411 683.319 443.395 683.319 445.829 683.319 448.264 685.303 450.248 687.737 450.248 690.172 450.248 692.156 448.264 692.156 445.829 692.156 443.395 690.172 441.411 687.737 441.411M687.737 443.836C688.839 443.836 689.741 444.727 689.741 445.839 689.741 446.951 688.849 447.843 687.737 447.843 686.625 447.843 685.734 446.951 685.734 445.839 685.734 444.727 686.625 443.836 687.737 443.836" fill="#FFFFFF"/></g></svg>