<svg width="267" height="267" xmlns="http://www.w3.org/2000/svg" xmlns:xlink="http://www.w3.org/1999/xlink" xml:space="preserve" overflow="hidden"><defs><clipPath id="clip0"><rect x="1939" y="1094" width="267" height="267"/></clipPath></defs><g clip-path="url(#clip0)" transform="translate(-1939 -1094)"><path d="M2119.16 1145.95C2130.37 1155.92 2136 1169.65 2136 1187.12 2136 1204.59 2130.41 1217.62 2119.32 1226.71 2108.18 1235.79 2093.42 1240.35 2075.07 1240.35L2074.01 1260.71 2041.38 1260.71 2040.07 1215.71 2051.98 1215.71C2067.36 1215.71 2079.19 1213.67 2087.51 1209.6 2095.83 1205.53 2099.95 1198.12 2099.95 1187.36 2099.95 1179.59 2097.7 1173.44 2093.17 1168.83 2088.65 1164.23 2082.53 1161.95 2074.74 1161.95 2066.95 1161.95 2060.3 1164.15 2055.77 1168.55 2051.25 1172.95 2049 1179.06 2049 1186.84L2014.01 1186.84C2013.84 1176.08 2016.13 1166.47 2020.9 1158 2025.67 1149.53 2032.69 1142.89 2041.99 1138.13 2051.29 1133.36 2062.18 1131 2074.74 1131 2093.13 1131 2107.9 1135.97 2119.16 1145.95ZM2040.93 1317.77C2036.6 1313.62 2034.44 1308.44 2034.44 1302.29 2034.44 1296.14 2036.6 1290.97 2040.93 1286.82 2045.25 1282.66 2050.8 1280.59 2057.49 1280.59 2064.18 1280.59 2069.44 1282.66 2073.64 1286.82 2077.88 1290.97 2080 1296.14 2080 1302.29 2080 1308.44 2077.88 1313.66 2073.64 1317.77 2069.4 1321.92 2064.01 1324 2057.49 1324 2050.96 1324 2045.25 1321.92 2040.93 1317.77Z" fill="#B9052D" fill-rule="evenodd"/><path d="M2072.5 1361C1998.89 1361 1939 1301.12 1939 1227.5 1939 1153.88 1998.89 1094 2072.5 1094 2146.11 1094 2206 1153.88 2206 1227.5 2206 1301.12 2146.11 1361 2072.5 1361ZM2072.5 1102.62C2003.62 1102.62 1947.58 1158.65 1947.58 1227.53 1947.58 1296.41 2003.62 1352.45 2072.5 1352.45 2141.38 1352.45 2197.42 1296.41 2197.42 1227.53 2197.42 1158.65 2141.38 1102.62 2072.5 1102.62Z" fill-rule="evenodd"/></g></svg>