<?xml version="1.0" encoding="UTF-8"?>
<svg id="Ebene_2" data-name="Ebene 2" xmlns="http://www.w3.org/2000/svg" viewBox="0 0 648.5 141.73">
  <defs>
    <style>
      .cls-1 {
        fill: #fff;
      }
    </style>
  </defs>
  <g id="FEV">
    <g>
      <g>
        <path class="cls-1" d="M399.11,121.38l-27.59-57.83s0-.02.02-.03l-9.08-19.03s0,.02-.02.03l-15.43-32.35c-7.51-15.73-29.68-16.35-38.04-1.05l-63.94,116.97c-3.46,6.34,1.37,14.02,8.59,13.63.81-.04,20.23-1.23,46.68-15.05,14.03-7.33,31.85-19.25,50.3-38.37,2.28-2.37,2.85-5.91,1.44-8.88-.38-.81-.78-1.64-1.17-2.48-2.37-5.03-9.05-6.12-12.9-2.11-16.67,17.41-32.64,28.27-45.19,34.96-5.68,3.02-10.98,5.37-15.74,7.2-2.13.82-4.12-1.46-3.03-3.47l46.45-84.97c3.1-5.68,11.34-5.45,14.12.39l11.39,23.89,4.01,8.39,8.71,18.26,4.08,8.55,19.69,41.29c1.89,3.95,6.62,5.63,10.57,3.75l2.33-1.11c3.96-1.89,5.63-6.62,3.75-10.58Z"/>
        <circle class="cls-1" cx="380.62" cy="44.34" r="10.13" transform="translate(80.13 282.13) rotate(-45)"/>
      </g>
      <g>
        <path class="cls-1" d="M66.3,54.99c-2.21-4.25-5.27-7.46-9.19-9.62-3.92-2.16-8.46-3.25-13.6-3.25-5.64,0-10.66,1.27-15.07,3.8-4.41,2.53-7.86,6.13-10.36,10.79-2.49,4.66-3.74,10.05-3.74,16.18s1.25,11.54,3.74,16.24c2.49,4.7,5.94,8.31,10.36,10.85,4.41,2.53,9.44,3.8,15.07,3.8,7.6,0,13.77-2.12,18.51-6.37,4.74-4.25,7.64-10.01,8.7-17.28h-31.99v-11.15h46.94v10.91c-.9,6.62-3.25,12.71-7.05,18.26-3.8,5.56-8.74,9.99-14.83,13.3-6.09,3.31-12.85,4.96-20.28,4.96-8.01,0-15.32-1.86-21.94-5.58-6.62-3.72-11.87-8.89-15.75-15.5-3.88-6.62-5.82-14.09-5.82-22.43s1.94-15.81,5.82-22.43c3.88-6.62,9.15-11.78,15.81-15.5,6.66-3.72,13.95-5.58,21.88-5.58,9.07,0,17.14,2.23,24.2,6.68,7.07,4.45,12.19,10.77,15.38,18.94h-16.79Z"/>
        <path class="cls-1" d="M160.79,87.11h-51.6c.41,5.39,2.41,9.72,6.01,12.99,3.59,3.27,8.01,4.9,13.24,4.9,7.52,0,12.83-3.14,15.93-9.44h15.07c-2.04,6.21-5.74,11.3-11.09,15.26-5.35,3.96-11.99,5.94-19.92,5.94-6.45,0-12.24-1.45-17.34-4.35-5.11-2.9-9.11-6.99-12.01-12.26-2.9-5.27-4.35-11.38-4.35-18.32s1.41-13.05,4.23-18.32c2.82-5.27,6.78-9.33,11.89-12.19,5.11-2.86,10.97-4.29,17.59-4.29s12.05,1.39,17.04,4.17c4.98,2.78,8.86,6.68,11.64,11.7,2.78,5.02,4.17,10.81,4.17,17.34,0,2.53-.16,4.82-.49,6.86ZM146.7,75.83c-.08-5.15-1.92-9.27-5.52-12.38-3.6-3.1-8.05-4.66-13.36-4.66-4.82,0-8.95,1.53-12.38,4.6-3.43,3.06-5.47,7.21-6.13,12.44h37.38Z"/>
        <path class="cls-1" d="M223.36,50.34c4.21,2.21,7.5,5.48,9.87,9.8,2.37,4.33,3.55,9.56,3.55,15.69v39.83h-13.85v-37.75c0-6.04-1.51-10.68-4.53-13.91-3.02-3.23-7.15-4.84-12.38-4.84s-9.38,1.61-12.44,4.84c-3.06,3.23-4.6,7.87-4.6,13.91v37.75h-13.97V48.13h13.97v7.72c2.29-2.78,5.21-4.94,8.76-6.5,3.55-1.55,7.33-2.33,11.34-2.33,5.31,0,10.07,1.1,14.28,3.31Z"/>
      </g>
      <g>
        <path class="cls-1" d="M483.78,30.48v85.18h-13.97v-37.26h-40.08v37.26h-13.97V30.48h13.97v36.52h40.08V30.48h13.97Z"/>
        <path class="cls-1" d="M560.87,48.13v67.53h-13.97v-7.97c-2.21,2.78-5.09,4.96-8.64,6.56-3.55,1.59-7.33,2.39-11.34,2.39-5.31,0-10.07-1.1-14.28-3.31-4.21-2.21-7.52-5.47-9.93-9.8-2.41-4.33-3.62-9.56-3.62-15.69v-39.71h13.85v37.62c0,6.05,1.51,10.68,4.53,13.91,3.02,3.23,7.15,4.84,12.38,4.84s9.38-1.61,12.44-4.84c3.06-3.23,4.6-7.86,4.6-13.91v-37.62h13.97Z"/>
        <path class="cls-1" d="M602.97,50.15c4.13-2.08,8.72-3.13,13.79-3.13,5.96,0,11.36,1.43,16.18,4.29,4.82,2.86,8.62,6.92,11.4,12.19,2.78,5.27,4.17,11.3,4.17,18.08s-1.39,12.85-4.17,18.2c-2.78,5.35-6.6,9.52-11.46,12.5-4.86,2.98-10.23,4.47-16.12,4.47-5.23,0-9.87-1.02-13.91-3.06-4.04-2.04-7.25-4.66-9.62-7.84v9.8h-13.97V24.97h13.97v33.21c2.37-3.27,5.62-5.94,9.74-8.03ZM631.4,69.52c-1.92-3.39-4.45-5.96-7.6-7.72-3.15-1.76-6.52-2.64-10.11-2.64s-6.84.9-9.99,2.7c-3.15,1.8-5.68,4.41-7.6,7.84-1.92,3.43-2.88,7.48-2.88,12.13s.96,8.72,2.88,12.19c1.92,3.47,4.45,6.11,7.6,7.91,3.14,1.8,6.47,2.7,9.99,2.7s6.96-.92,10.11-2.76c3.14-1.84,5.68-4.51,7.6-8.03,1.92-3.51,2.88-7.6,2.88-12.26s-.96-8.68-2.88-12.07Z"/>
      </g>
    </g>
  </g>
</svg>