<svg width="326" height="408" xmlns="http://www.w3.org/2000/svg" xmlns:xlink="http://www.w3.org/1999/xlink" xml:space="preserve" overflow="hidden"><defs><clipPath id="clip0"><rect x="1595" y="1142" width="326" height="408"/></clipPath></defs><g clip-path="url(#clip0)" transform="translate(-1595 -1142)"><path d="M1599.32 1488C1596.93 1488 1595 1486.08 1595 1483.7L1595 1419.1C1595 1399.2 1607.71 1381.5 1626.61 1375L1684.26 1355.24C1686.51 1354.45 1688.96 1355.66 1689.76 1357.89 1690.55 1360.12 1689.34 1362.56 1687.1 1363.35L1629.44 1383.11C1614.03 1388.41 1603.67 1402.88 1603.67 1419.1L1603.67 1483.7C1603.67 1486.08 1601.74 1488 1599.35 1488Z" fill="#FFFFFF" fill-rule="evenodd"/><path d="M1916.65 1488C1914.26 1488 1912.33 1486.08 1912.33 1483.7L1912.33 1419.1C1912.33 1402.88 1901.97 1388.41 1886.56 1383.11L1828.9 1363.35C1826.66 1362.6 1825.45 1360.12 1826.24 1357.89 1827.04 1355.66 1829.49 1354.45 1831.74 1355.24L1889.39 1375C1908.29 1381.5 1921 1399.2 1921 1419.1L1921 1483.7C1921 1486.08 1919.07 1488 1916.68 1488Z" fill="#FFFFFF" fill-rule="evenodd"/><path d="M1757.74 1345 1757.64 1345C1746.39 1344.73 1735.17 1340.78 1724.26 1333.29 1675.48 1299.72 1677.95 1260.1 1678.05 1258.42L1678.05 1216.22C1678.05 1175.3 1713.8 1142 1757.71 1142 1760.08 1142 1762 1143.92 1762 1146.29 1762 1148.66 1760.08 1150.58 1757.71 1150.58 1718.5 1150.58 1686.59 1180.04 1686.59 1216.22L1686.59 1258.73C1686.49 1260.51 1684.6 1295.6 1729.1 1326.19 1738.6 1332.71 1748.24 1336.14 1757.81 1336.38 1760.18 1336.45 1762.07 1338.41 1762 1340.78 1761.93 1343.11 1760.04 1344.97 1757.71 1344.97Z" fill="#FFFFFF" fill-rule="evenodd"/><path d="M1758.29 1345C1755.96 1345 1754.07 1343.15 1754 1340.81 1753.93 1338.44 1755.82 1336.48 1758.19 1336.42 1767.75 1336.18 1777.39 1332.74 1786.89 1326.22 1831.37 1295.59 1829.48 1260.53 1829.38 1259.05L1829.38 1216.24C1829.38 1180.05 1797.49 1150.58 1758.29 1150.58 1755.92 1150.58 1754 1148.66 1754 1146.29 1754 1143.92 1755.92 1142 1758.29 1142 1802.22 1142 1837.95 1175.31 1837.95 1216.24L1837.95 1258.75C1838.05 1260.08 1840.52 1299.74 1791.76 1333.29 1780.89 1340.78 1769.64 1344.73 1758.39 1345L1758.29 1345Z" fill="#FFFFFF" fill-rule="evenodd"/><path d="M1753.99 1550C1752.89 1550 1751.79 1549.59 1750.96 1548.73L1721.26 1519.07C1720.16 1517.97 1719.71 1516.32 1720.19 1514.8L1752.85 1405.08C1753.4 1403.22 1755.2 1401.84 1757.09 1402.01 1759.05 1402.08 1760.71 1403.43 1761.16 1405.32L1787.89 1518C1788.24 1519.52 1787.75 1521.13 1786.58 1522.2L1756.88 1548.9C1756.06 1549.62 1755.02 1550 1753.99 1550ZM1729.15 1514.8 1754.13 1539.75 1778.9 1517.49 1756.47 1422.97 1729.15 1514.77Z" fill="#FFFFFF" fill-rule="evenodd"/><path d="M1756.62 1412C1755.51 1412 1754.41 1411.58 1753.58 1410.71L1717.27 1374.2C1715.58 1372.49 1715.58 1369.75 1717.27 1368.04 1718.97 1366.34 1721.7 1366.34 1723.39 1368.04L1756.62 1401.46 1790.61 1367.28C1792.3 1365.57 1795.04 1365.57 1796.73 1367.28 1798.42 1368.98 1798.42 1371.73 1796.73 1373.43L1759.7 1410.68C1758.87 1411.51 1757.76 1411.97 1756.65 1411.97Z" fill="#FFFFFF" fill-rule="evenodd"/></g></svg>