<svg width="193" height="343" xmlns="http://www.w3.org/2000/svg" xmlns:xlink="http://www.w3.org/1999/xlink" xml:space="preserve" overflow="hidden"><defs><clipPath id="clip0"><rect x="2103" y="1064" width="193" height="343"/></clipPath></defs><g clip-path="url(#clip0)" transform="translate(-2103 -1064)"><path d="M2241.75 1318 2157.28 1318C2154.92 1318 2153 1316.08 2153 1313.7L2153 1187.62C2153.14 1172.5 2153.82 1156.18 2157.87 1139.17 2165.03 1108.83 2179.15 1081.85 2196.55 1065.19 2198.2 1063.6 2200.8 1063.6 2202.45 1065.19 2219.89 1081.85 2233.97 1108.79 2241.13 1139.17L2241.13 1139.17C2245.42 1157.31 2245.97 1175.25 2246 1187.14L2246 1313.7C2246 1316.08 2244.08 1318 2241.72 1318ZM2161.57 1309.41 2237.47 1309.41 2237.47 1187.18C2237.43 1175.7 2236.89 1158.41 2232.84 1141.16L2232.84 1141.16C2226.47 1114.15 2214.41 1090.1 2199.53 1074.39 2184.63 1090.1 2172.6 1114.15 2166.23 1141.16 2162.39 1157.35 2161.74 1173.09 2161.6 1187.69L2161.6 1309.44Z" fill="#FFFFFF" fill-rule="evenodd"/><path d="M2219.92 1353 2179.08 1353C2169.66 1353 2162 1345.28 2162 1335.77L2162 1314 2170.51 1314 2170.51 1335.77C2170.51 1340.54 2174.35 1344.42 2179.08 1344.42L2219.92 1344.42C2224.65 1344.42 2228.49 1340.54 2228.49 1335.77L2228.49 1314 2237 1314 2237 1335.77C2237 1345.28 2229.34 1353 2219.92 1353Z" fill="#FFFFFF" fill-rule="evenodd"/><path d="M2199.5 1213C2182.12 1213 2168 1198.88 2168 1181.5 2168 1164.12 2182.12 1150 2199.5 1150 2216.88 1150 2231 1164.12 2231 1181.5 2231 1198.88 2216.88 1213 2199.5 1213ZM2199.5 1158.65C2186.9 1158.65 2176.65 1168.9 2176.65 1181.5 2176.65 1194.1 2186.9 1204.35 2199.5 1204.35 2212.1 1204.35 2222.35 1194.1 2222.35 1181.5 2222.35 1168.9 2212.1 1158.65 2199.5 1158.65Z" fill="#FFFFFF" fill-rule="evenodd"/><path d="M2107.28 1311.97C2106.39 1311.97 2105.5 1311.69 2104.75 1311.14 2103.65 1310.31 2103 1309.03 2103 1307.65L2103 1281.63C2103 1280.42 2103.48 1279.28 2104.37 1278.45L2153.8 1232.15C2155.54 1230.53 2158.25 1230.63 2159.86 1232.39 2161.47 1234.16 2161.36 1236.89 2159.62 1238.51L2111.56 1283.53 2111.56 1301.77 2155.41 1287.68C2157.67 1286.95 2160.06 1288.19 2160.78 1290.47 2161.5 1292.76 2160.27 1295.17 2158.01 1295.9L2108.58 1311.79C2108.17 1311.93 2107.73 1312 2107.28 1312Z" fill="#FFFFFF" fill-rule="evenodd"/><path d="M2291.69 1312C2291.24 1312 2290.83 1311.93 2290.38 1311.79L2240.62 1295.86 2243.24 1287.62 2287.38 1301.75 2287.38 1283.46 2239 1238.34 2244.86 1232 2294.62 1278.41C2295.48 1279.24 2296 1280.38 2296 1281.59L2296 1307.67C2296 1309.06 2295.34 1310.34 2294.24 1311.17 2293.48 1311.72 2292.59 1312 2291.69 1312Z" fill="#FFFFFF" fill-rule="evenodd"/><path d="M2213 1405.4 2213 1363.6C2213 1362.7 2215.02 1362 2217.5 1362 2219.98 1362 2222 1362.72 2222 1363.6L2222 1405.4C2222 1406.3 2219.98 1407 2217.5 1407 2215.02 1407 2213 1406.28 2213 1405.4Z" fill="#FFFFFF" fill-rule="evenodd"/><path d="M2195 1397.83 2195 1364.17C2195 1362.97 2197.02 1362 2199.5 1362 2201.98 1362 2204 1362.97 2204 1364.17L2204 1397.83C2204 1399.03 2201.98 1400 2199.5 1400 2197.02 1400 2195 1399.03 2195 1397.83Z" fill="#FFFFFF" fill-rule="evenodd"/><path d="M2177 1405.22 2177 1363.78C2177 1362.79 2179.02 1362 2181.5 1362 2183.98 1362 2186 1362.79 2186 1363.78L2186 1405.22C2186 1406.21 2183.98 1407 2181.5 1407 2179.02 1407 2177 1406.21 2177 1405.22Z" fill="#FFFFFF" fill-rule="evenodd"/></g></svg>