<svg width="116" height="116" xmlns="http://www.w3.org/2000/svg" xmlns:xlink="http://www.w3.org/1999/xlink" xml:space="preserve" overflow="hidden"><g transform="translate(-801 -393)"><path d="M866.387 479.38 852.481 479.38C850.582 479.38 849.035 477.833 849.035 475.934L849.035 461.366C849.035 460.433 848.561 459.541 847.758 458.984 842.005 454.99 838.764 448.426 839.083 441.428 839.549 431.099 848.004 422.636 858.333 422.162 863.907 421.916 869.218 423.88 873.253 427.735 877.288 431.59 879.515 436.787 879.515 442.361 879.515 448.884 876.339 455.047 871.019 458.837 870.078 459.508 869.538 460.506 869.538 461.579L869.538 476.229C869.538 477.964 868.13 479.372 866.395 479.372ZM859.291 424.2C859.004 424.2 858.709 424.2 858.423 424.216 849.142 424.642 841.546 432.245 841.129 441.526 840.843 447.82 843.756 453.713 848.929 457.306 850.279 458.247 851.09 459.762 851.09 461.366L851.09 475.934C851.09 476.704 851.712 477.334 852.489 477.334L866.395 477.334C867 477.334 867.492 476.843 867.492 476.237L867.492 461.587C867.492 459.868 868.367 458.223 869.832 457.183 874.62 453.77 877.477 448.238 877.477 442.378 877.477 437.36 875.48 432.695 871.854 429.233 868.441 425.967 864.013 424.2 859.307 424.2Z" fill="#FFFFFF"/><path d="M859.274 485.764C855.256 485.764 851.687 483.063 850.599 479.2 850.443 478.66 850.762 478.095 851.302 477.94 851.843 477.784 852.416 478.103 852.563 478.643 853.406 481.631 856.164 483.71 859.266 483.71 862.368 483.71 865.224 481.557 866.018 478.48 866.157 477.931 866.714 477.604 867.262 477.743 867.811 477.882 868.138 478.439 867.999 478.987 866.976 482.973 863.391 485.756 859.266 485.756Z" fill="#FFFFFF"/><path d="M868.498 475.55C868.449 475.55 868.4 475.55 868.351 475.541L849.903 472.816C849.346 472.734 848.962 472.21 849.043 471.654 849.125 471.097 849.649 470.704 850.206 470.794L868.654 473.52C869.21 473.602 869.595 474.126 869.513 474.682 869.439 475.19 869.006 475.558 868.506 475.558Z" fill="#FFFFFF"/><path d="M868.498 470.713C868.449 470.713 868.4 470.713 868.351 470.704L849.903 467.979C849.346 467.897 848.962 467.373 849.043 466.817 849.125 466.26 849.649 465.859 850.206 465.957L868.654 468.683C869.21 468.765 869.595 469.288 869.513 469.845 869.439 470.352 869.006 470.721 868.506 470.721Z" fill="#FFFFFF"/><path d="M868.498 464.263 850.05 464.263C849.485 464.263 849.027 463.805 849.027 463.24 849.027 462.675 849.485 462.217 850.05 462.217L868.498 462.217C869.063 462.217 869.521 462.675 869.521 463.24 869.521 463.805 869.063 464.263 868.498 464.263Z" fill="#FFFFFF"/><path d="M859.274 418.503C858.709 418.503 858.251 418.045 858.251 417.48L858.251 411.031C858.251 410.466 858.709 410.008 859.274 410.008 859.839 410.008 860.297 410.466 860.297 411.031L860.297 417.48C860.297 418.045 859.839 418.503 859.274 418.503Z" fill="#FFFFFF"/><path d="M891.734 443.802 885.285 443.802C884.72 443.802 884.262 443.343 884.262 442.779 884.262 442.214 884.72 441.756 885.285 441.756L891.734 441.756C892.299 441.756 892.757 442.214 892.757 442.779 892.757 443.343 892.299 443.802 891.734 443.802Z" fill="#FFFFFF"/><path d="M832.617 443.802 826.168 443.802C825.603 443.802 825.144 443.343 825.144 442.779 825.144 442.214 825.603 441.756 826.168 441.756L832.617 441.756C833.182 441.756 833.64 442.214 833.64 442.779 833.64 443.343 833.182 443.802 832.617 443.802Z" fill="#FFFFFF"/><path d="M876.2 426.475C875.938 426.475 875.676 426.377 875.48 426.172 875.079 425.771 875.079 425.124 875.48 424.723L880.038 420.165C880.44 419.764 881.086 419.764 881.487 420.165 881.888 420.566 881.888 421.212 881.487 421.613L876.928 426.172C876.732 426.369 876.47 426.475 876.208 426.475Z" fill="#FFFFFF"/><path d="M841.227 426.475C840.965 426.475 840.703 426.377 840.507 426.172L835.948 421.613C835.547 421.212 835.547 420.566 835.948 420.165 836.349 419.764 836.996 419.764 837.397 420.165L841.956 424.723C842.357 425.124 842.357 425.771 841.956 426.172 841.759 426.369 841.497 426.475 841.235 426.475Z" fill="#FFFFFF"/><path d="M880.759 466.391C880.497 466.391 880.235 466.293 880.038 466.088L875.48 461.529C875.079 461.128 875.079 460.482 875.48 460.081 875.881 459.68 876.527 459.68 876.928 460.081L881.487 464.64C881.888 465.041 881.888 465.687 881.487 466.088 881.291 466.285 881.029 466.391 880.767 466.391Z" fill="#FFFFFF"/><path d="M836.66 466.391C836.398 466.391 836.136 466.293 835.94 466.088 835.539 465.687 835.539 465.041 835.94 464.64L840.499 460.081C840.9 459.68 841.546 459.68 841.947 460.081 842.349 460.482 842.349 461.128 841.947 461.529L837.389 466.088C837.192 466.285 836.93 466.391 836.668 466.391Z" fill="#FFFFFF"/></g></svg>