<svg width="142" height="142" xmlns="http://www.w3.org/2000/svg" xmlns:xlink="http://www.w3.org/1999/xlink" xml:space="preserve" overflow="hidden"><g transform="translate(-605 -341)"><path d="M646.258 463.222C646.028 463.222 645.808 463.142 645.637 463.002 645.427 462.832 645.297 462.591 645.267 462.331L634.917 370.727C634.857 370.175 635.247 369.685 635.799 369.614L654.564 367.49C655.105 367.43 655.606 367.821 655.676 368.372 655.736 368.923 655.346 369.414 654.795 369.484L637.031 371.488 647.16 461.108 714.438 453.504 704.309 363.884 686.545 365.887C685.994 365.947 685.503 365.557 685.433 365.006 685.373 364.455 685.764 363.964 686.315 363.894L705.08 361.77C705.631 361.699 706.122 362.1 706.192 362.651L716.542 454.265C716.572 454.526 716.492 454.796 716.332 455.007 716.161 455.217 715.921 455.347 715.66 455.378L646.399 463.202C646.399 463.202 646.319 463.202 646.289 463.202Z" fill="#FFFFFF"/><path d="M662.6 453.925C662.119 453.925 661.708 453.584 661.618 453.103L659.944 444.086 650.507 443.665C650.016 443.645 649.615 443.264 649.555 442.774L642 375.936C641.94 375.385 642.331 374.894 642.882 374.824L655.135 373.442C655.696 373.392 656.177 373.772 656.247 374.323 656.308 374.874 655.917 375.365 655.366 375.435L644.104 376.708 651.448 441.691 660.826 442.102C661.287 442.122 661.678 442.463 661.768 442.924L663.421 451.801 707.174 446.861 698.548 370.556 687.327 371.829C686.776 371.889 686.285 371.498 686.214 370.947 686.154 370.396 686.545 369.905 687.096 369.835L699.309 368.452C699.85 368.392 700.351 368.783 700.421 369.334L709.268 447.633C709.298 447.893 709.218 448.164 709.058 448.374 708.888 448.585 708.647 448.715 708.387 448.745L662.72 453.905C662.72 453.905 662.64 453.905 662.61 453.905Z" fill="#FFFFFF"/><path d="M662.6 453.925C662.369 453.925 662.139 453.845 661.948 453.684L650.096 443.595C649.675 443.234 649.625 442.603 649.986 442.182 650.346 441.762 650.977 441.711 651.398 442.072L663.251 452.161C663.672 452.522 663.722 453.153 663.361 453.574 663.161 453.805 662.88 453.925 662.6 453.925Z" fill="#FFFFFF"/><path d="M655.506 376.858C655.276 376.858 655.055 376.778 654.885 376.638 654.674 376.467 654.544 376.227 654.514 375.966L653.352 365.697C653.292 365.146 653.683 364.655 654.234 364.585L685.974 360.998C686.245 360.978 686.505 361.048 686.715 361.208 686.926 361.379 687.056 361.619 687.086 361.88L688.248 372.149C688.308 372.7 687.918 373.191 687.367 373.261L655.626 376.848C655.626 376.848 655.546 376.848 655.516 376.848ZM655.456 366.478 656.388 374.754 686.134 371.388 685.203 363.112 655.456 366.478Z" fill="#FFFFFF"/><path d="M655.256 391.536C654.755 391.536 654.324 391.155 654.264 390.644 654.204 390.093 654.594 389.602 655.145 389.532L672.779 387.538C673.33 387.478 673.821 387.869 673.891 388.42 673.951 388.971 673.56 389.462 673.009 389.532L655.376 391.526C655.376 391.526 655.296 391.526 655.266 391.526Z" fill="#FFFFFF"/><path d="M656.057 398.59C655.556 398.59 655.125 398.209 655.065 397.698 655.005 397.147 655.396 396.656 655.947 396.586L689.801 392.758C690.352 392.708 690.843 393.089 690.913 393.64 690.973 394.191 690.583 394.682 690.032 394.752L656.177 398.579C656.177 398.579 656.097 398.579 656.067 398.579Z" fill="#FFFFFF"/><path d="M656.849 405.643C656.348 405.643 655.917 405.262 655.857 404.751 655.797 404.2 656.187 403.709 656.738 403.639L674.372 401.645C674.913 401.585 675.414 401.976 675.484 402.527 675.544 403.078 675.153 403.569 674.602 403.639L656.969 405.633C656.969 405.633 656.889 405.633 656.859 405.633Z" fill="#FFFFFF"/><path d="M657.65 412.696C657.149 412.696 656.718 412.316 656.658 411.805 656.598 411.254 656.989 410.763 657.54 410.693L691.394 406.865C691.945 406.805 692.436 407.196 692.506 407.747 692.567 408.298 692.176 408.789 691.625 408.859L657.77 412.686C657.77 412.686 657.69 412.686 657.66 412.686Z" fill="#FFFFFF"/><path d="M684.251 430.3C683.98 430.3 683.7 430.21 683.469 430.029L675.614 423.777C675.073 423.347 674.983 422.555 675.414 422.014 675.845 421.473 676.626 421.383 677.177 421.814L684.05 427.284 697.035 410.993C697.466 410.452 698.257 410.362 698.798 410.793 699.339 411.224 699.43 412.015 698.999 412.556L685.233 429.829C684.982 430.139 684.621 430.3 684.251 430.3Z" fill="#FFFFFF"/></g></svg>