<svg width="116" height="116" xmlns="http://www.w3.org/2000/svg" xmlns:xlink="http://www.w3.org/1999/xlink" xml:space="preserve" overflow="hidden"><g transform="translate(-801 -393)"><path d="M879.179 426.467 847.456 426.467C846.891 426.467 846.433 426.008 846.433 425.444 846.433 424.879 846.891 424.421 847.456 424.421L879.179 424.421C879.744 424.421 880.202 424.879 880.202 425.444 880.202 426.008 879.744 426.467 879.179 426.467Z" fill="#FFFFFF"/><path d="M869.022 434.005 847.456 434.005C846.891 434.005 846.433 433.546 846.433 432.982 846.433 432.417 846.891 431.959 847.456 431.959L869.022 431.959C869.587 431.959 870.045 432.417 870.045 432.982 870.045 433.546 869.587 434.005 869.022 434.005Z" fill="#FFFFFF"/><path d="M879.179 447.828 847.456 447.828C846.891 447.828 846.433 447.37 846.433 446.805 846.433 446.241 846.891 445.782 847.456 445.782L879.179 445.782C879.744 445.782 880.202 446.241 880.202 446.805 880.202 447.37 879.744 447.828 879.179 447.828Z" fill="#FFFFFF"/><path d="M869.022 455.366 847.456 455.366C846.891 455.366 846.433 454.908 846.433 454.343 846.433 453.779 846.891 453.32 847.456 453.32L869.022 453.32C869.587 453.32 870.045 453.779 870.045 454.343 870.045 454.908 869.587 455.366 869.022 455.366Z" fill="#FFFFFF"/><path d="M870.757 468.012 847.456 468.012C846.891 468.012 846.433 467.553 846.433 466.989 846.433 466.424 846.891 465.966 847.456 465.966L870.757 465.966C871.322 465.966 871.78 466.424 871.78 466.989 871.78 467.553 871.322 468.012 870.757 468.012Z" fill="#FFFFFF"/><path d="M869.022 475.558 847.456 475.558C846.891 475.558 846.433 475.099 846.433 474.535 846.433 473.97 846.891 473.512 847.456 473.512L869.022 473.512C869.587 473.512 870.045 473.97 870.045 474.535 870.045 475.099 869.587 475.558 869.022 475.558Z" fill="#FFFFFF"/><path d="M831.676 434.177C831.414 434.177 831.152 434.078 830.956 433.874L825.873 428.791C825.472 428.39 825.472 427.744 825.873 427.342 826.274 426.941 826.921 426.941 827.322 427.342L831.684 431.705 839.197 424.191C839.598 423.79 840.245 423.79 840.646 424.191 841.047 424.592 841.047 425.239 840.646 425.64L832.404 433.882C832.208 434.078 831.946 434.185 831.684 434.185Z" fill="#FFFFFF"/><path d="M831.676 455.366C831.414 455.366 831.152 455.268 830.956 455.064L825.873 449.981C825.472 449.58 825.472 448.933 825.873 448.532 826.274 448.131 826.921 448.131 827.322 448.532L831.684 452.895 839.197 445.381C839.598 444.98 840.245 444.98 840.646 445.381 841.047 445.782 841.047 446.429 840.646 446.83L832.404 455.072C832.208 455.268 831.946 455.375 831.684 455.375Z" fill="#FFFFFF"/><path d="M833.255 478.185C829.016 478.185 825.57 474.739 825.57 470.5 825.57 466.26 829.016 462.814 833.255 462.814 837.495 462.814 840.941 466.26 840.941 470.5 840.941 474.739 837.495 478.185 833.255 478.185ZM833.255 464.861C830.145 464.861 827.616 467.39 827.616 470.5 827.616 473.61 830.145 476.139 833.255 476.139 836.366 476.139 838.895 473.61 838.895 470.5 838.895 467.39 836.366 464.861 833.255 464.861Z" fill="#FFFFFF"/><path d="M911.582 433.89 900.942 427.744C900.786 427.654 900.615 427.613 900.443 427.613 900.099 427.613 899.763 427.793 899.583 428.112L876.2 468.617C876.126 468.748 876.085 468.887 876.069 469.035L874.972 482.858C874.923 483.472 875.422 483.931 875.963 483.931 876.143 483.931 876.331 483.882 876.503 483.767L888.248 476.073C888.379 475.992 888.485 475.877 888.567 475.738L911.95 435.241C912.228 434.766 912.065 434.16 911.59 433.882ZM885.285 476.09 880.562 479.004C880.472 479.061 880.349 479.061 880.259 479.004L877.469 477.17C877.387 477.113 877.338 477.023 877.346 476.925L877.542 471.425C877.542 471.212 877.788 471.081 877.968 471.195L885.277 475.623C885.457 475.73 885.457 475.992 885.277 476.098ZM901.711 445.078 886.283 472.251C886.152 472.48 885.915 472.603 885.669 472.603 885.555 472.603 885.432 472.57 885.326 472.513 884.99 472.325 884.867 471.891 885.064 471.556L900.492 444.383C900.68 444.047 901.114 443.924 901.449 444.121 901.785 444.309 901.908 444.743 901.711 445.078ZM909.691 435.429 905.771 442.214 896.719 437.066 900.615 430.322C900.835 429.937 901.327 429.806 901.711 430.027L909.413 434.389C909.773 434.602 909.896 435.061 909.691 435.421Z" fill="#FFFFFF"/><path d="M886.005 489.447C886.005 491.444 884.376 493.073 882.379 493.073L820.217 493.073C818.22 493.073 816.592 491.444 816.592 489.447L816.592 436.296 814.545 436.296 814.545 489.455C814.545 492.582 817.091 495.127 820.217 495.127L882.379 495.127C885.506 495.127 888.051 492.582 888.051 489.455L888.051 477.072 886.005 478.431 886.005 489.455Z" fill="#FFFFFF"/><path d="M828.001 406.848 820.209 406.848C817.083 406.848 814.537 409.394 814.537 412.52L814.537 434.463 816.583 434.463 816.583 412.52C816.583 410.523 818.212 408.894 820.209 408.894L828.001 408.894 828.001 406.848Z" fill="#FFFFFF"/><path d="M882.379 406.848 829.834 406.848 829.834 408.894 882.379 408.894C884.376 408.894 886.005 410.523 886.005 412.52L886.005 450.374 888.051 446.863 888.051 412.52C888.051 409.394 885.506 406.848 882.379 406.848Z" fill="#FFFFFF"/></g></svg>