<svg width="142" height="142" xmlns="http://www.w3.org/2000/svg" xmlns:xlink="http://www.w3.org/1999/xlink" xml:space="preserve" overflow="hidden"><g transform="translate(-722 -84)"><path d="M817.702 124.968 778.868 124.968C778.177 124.968 777.616 124.407 777.616 123.716 777.616 123.024 778.177 122.463 778.868 122.463L817.702 122.463C818.393 122.463 818.954 123.024 818.954 123.716 818.954 124.407 818.393 124.968 817.702 124.968Z"/><path d="M805.268 134.195 778.868 134.195C778.177 134.195 777.616 133.634 777.616 132.943 777.616 132.252 778.177 131.691 778.868 131.691L805.268 131.691C805.96 131.691 806.521 132.252 806.521 132.943 806.521 133.634 805.96 134.195 805.268 134.195Z"/><path d="M817.702 151.118 778.868 151.118C778.177 151.118 777.616 150.557 777.616 149.865 777.616 149.174 778.177 148.613 778.868 148.613L817.702 148.613C818.393 148.613 818.954 149.174 818.954 149.865 818.954 150.557 818.393 151.118 817.702 151.118Z"/><path d="M805.268 160.345 778.868 160.345C778.177 160.345 777.616 159.784 777.616 159.093 777.616 158.401 778.177 157.84 778.868 157.84L805.268 157.84C805.96 157.84 806.521 158.401 806.521 159.093 806.521 159.784 805.96 160.345 805.268 160.345Z"/><path d="M807.392 175.825 778.868 175.825C778.177 175.825 777.616 175.264 777.616 174.572 777.616 173.881 778.177 173.32 778.868 173.32L807.392 173.32C808.084 173.32 808.645 173.881 808.645 174.572 808.645 175.264 808.084 175.825 807.392 175.825Z"/><path d="M805.268 185.062 778.868 185.062C778.177 185.062 777.616 184.501 777.616 183.81 777.616 183.118 778.177 182.557 778.868 182.557L805.268 182.557C805.96 182.557 806.521 183.118 806.521 183.81 806.521 184.501 805.96 185.062 805.268 185.062Z"/><path d="M759.551 134.406C759.231 134.406 758.91 134.286 758.67 134.035L752.448 127.813C751.957 127.322 751.957 126.531 752.448 126.04 752.939 125.549 753.73 125.549 754.221 126.04L759.561 131.38 768.759 122.183C769.25 121.692 770.041 121.692 770.532 122.183 771.023 122.674 771.023 123.465 770.532 123.956L760.443 134.045C760.203 134.286 759.882 134.416 759.561 134.416Z" fill="#B9052D"/><path d="M759.551 160.345C759.231 160.345 758.91 160.225 758.67 159.974L752.448 153.753C751.957 153.262 751.957 152.47 752.448 151.979 752.939 151.488 753.73 151.488 754.221 151.979L759.561 157.319 768.759 148.122C769.25 147.631 770.041 147.631 770.532 148.122 771.023 148.613 771.023 149.404 770.532 149.895L760.443 159.984C760.203 160.225 759.882 160.355 759.561 160.355Z" fill="#B9052D"/><path d="M761.485 188.278C756.295 188.278 752.077 184.06 752.077 178.87 752.077 173.681 756.295 169.463 761.485 169.463 766.675 169.463 770.893 173.681 770.893 178.87 770.893 184.06 766.675 188.278 761.485 188.278ZM761.485 171.967C757.678 171.967 754.582 175.063 754.582 178.87 754.582 182.678 757.678 185.774 761.485 185.774 765.292 185.774 768.388 182.678 768.388 178.87 768.388 175.063 765.292 171.967 761.485 171.967Z"/><path d="M857.367 134.055 844.343 126.531C844.152 126.421 843.942 126.371 843.731 126.371 843.311 126.371 842.9 126.591 842.679 126.982L814.055 176.566C813.965 176.726 813.915 176.897 813.895 177.077L812.552 193.999C812.492 194.751 813.103 195.312 813.764 195.312 813.985 195.312 814.215 195.252 814.426 195.111L828.803 185.693C828.963 185.593 829.094 185.453 829.194 185.283L857.818 135.708C858.159 135.127 857.958 134.386 857.377 134.045ZM825.176 185.713 819.395 189.28C819.285 189.35 819.135 189.35 819.024 189.28L815.608 187.036C815.508 186.966 815.448 186.856 815.458 186.735L815.698 180.003C815.698 179.742 815.999 179.582 816.219 179.722L825.166 185.142C825.387 185.273 825.387 185.593 825.166 185.723ZM845.284 147.751 826.398 181.014C826.238 181.295 825.948 181.445 825.647 181.445 825.507 181.445 825.357 181.405 825.226 181.335 824.815 181.105 824.665 180.574 824.906 180.163L843.792 146.9C844.022 146.489 844.553 146.339 844.964 146.579 845.375 146.809 845.525 147.34 845.284 147.751ZM855.053 135.939 850.254 144.245 839.173 137.943 843.942 129.687C844.212 129.216 844.814 129.056 845.284 129.326L854.712 134.666C855.153 134.927 855.303 135.488 855.053 135.929Z"/><path d="M826.058 202.064C826.058 204.509 824.064 206.503 821.619 206.503L745.525 206.503C743.08 206.503 741.086 204.509 741.086 202.064L741.086 137.001 738.582 137.001 738.582 202.075C738.582 205.902 741.697 209.018 745.525 209.018L821.619 209.018C825.447 209.018 828.563 205.902 828.563 202.075L828.563 186.916 826.058 188.579 826.058 202.075Z"/><path d="M755.053 100.952 745.515 100.952C741.687 100.952 738.572 104.068 738.572 107.895L738.572 134.757 741.076 134.757 741.076 107.895C741.076 105.451 743.07 103.457 745.515 103.457L755.053 103.457 755.053 100.952Z" fill="#B9052D"/><path d="M821.619 100.952 757.297 100.952 757.297 103.457 821.619 103.457C824.064 103.457 826.058 105.451 826.058 107.895L826.058 154.234 828.563 149.935 828.563 107.895C828.563 104.068 825.447 100.952 821.619 100.952Z"/></g></svg>