<svg width="407" height="247" xmlns="http://www.w3.org/2000/svg" xmlns:xlink="http://www.w3.org/1999/xlink" xml:space="preserve" overflow="hidden"><defs><clipPath id="clip0"><rect x="1634" y="1703" width="407" height="247"/></clipPath></defs><g clip-path="url(#clip0)" transform="translate(-1634 -1703)"><path d="M1822.7 1950 1638.3 1950C1635.93 1950 1634 1948.07 1634 1945.7L1634 1707.3C1634 1704.93 1635.93 1703 1638.3 1703L1822.7 1703C1825.07 1703 1827 1704.93 1827 1707.3L1827 1740.2C1827 1742.58 1825.07 1744.51 1822.7 1744.51 1820.33 1744.51 1818.4 1742.58 1818.4 1740.2L1818.4 1711.6 1642.6 1711.6 1642.6 1941.4 1818.4 1941.4 1818.4 1889.19C1818.4 1886.81 1820.33 1884.89 1822.7 1884.89 1825.07 1884.89 1827 1886.81 1827 1889.19L1827 1945.7C1827 1948.07 1825.07 1950 1822.7 1950Z" fill="#FFFFFF" fill-rule="evenodd"/><path d="M2036.66 1949 1851.31 1949C1848.93 1949 1847 1947.08 1847 1944.71L1847 1914.09C1847 1911.72 1848.93 1909.79 1851.31 1909.79 1853.69 1909.79 1855.62 1911.72 1855.62 1914.09L1855.62 1940.41 2032.34 1940.41 2032.34 1765.4 2003.21 1737.67 1977.03 1711.59 1855.62 1711.59 1855.62 1780.38C1855.62 1782.75 1853.69 1784.68 1851.31 1784.68 1848.93 1784.68 1847 1782.75 1847 1780.38L1847 1707.3C1847 1704.92 1848.93 1703 1851.31 1703L1978.83 1703C1979.97 1703 1981.07 1703.45 1981.86 1704.27L2009.24 1731.56 2039.66 1760.49C2040.52 1761.31 2041 1762.41 2041 1763.58L2041 1944.71C2041 1947.08 2039.07 1949 2036.69 1949Z" fill="#FFFFFF" fill-rule="evenodd"/><path d="M2036.66 1768 2036.59 1768 1978.27 1767.04C1975.91 1767 1974 1765.07 1974 1762.73L1974 1707.31C1974 1704.93 1975.95 1703 1978.34 1703 1980.74 1703 1982.69 1704.93 1982.69 1707.31L1982.69 1758.49 2036.72 1759.39C2039.12 1759.42 2041.03 1761.39 2041 1763.76 2040.96 1766.11 2039.02 1768 2036.66 1768Z" fill="#FFFFFF" fill-rule="evenodd"/><path d="M1833.68 1875C1816.39 1875 1799.66 1865.66 1791.15 1849.42L1763.4 1796.48C1751.21 1773.23 1760.37 1744.47 1783.75 1732.36 1807.16 1720.26 1836.12 1729.35 1848.31 1752.57 1850.51 1756.74 1848.86 1761.91 1844.66 1764.1 1840.43 1766.25 1835.23 1764.64 1833.06 1760.47 1825.27 1745.6 1806.72 1739.78 1791.74 1747.51 1776.76 1755.27 1770.91 1773.67 1778.69 1788.55L1806.44 1841.49C1814.22 1856.36 1832.78 1862.18 1847.76 1854.45 1850.93 1852.81 1853.72 1850.69 1856.09 1848.12 1859.33 1844.67 1864.77 1844.43 1868.25 1847.64 1871.73 1850.86 1871.93 1856.26 1868.73 1859.71 1865.01 1863.72 1860.6 1867.03 1855.71 1869.56 1848.69 1873.19 1841.11 1874.93 1833.68 1874.93Z" fill="#FFFFFF" fill-rule="evenodd"/><path d="M1861.17 1921C1856.31 1921 1851.46 1920.24 1846.71 1918.76 1834.52 1914.91 1824.54 1906.54 1818.65 1895.22 1816.45 1890.98 1818.1 1885.82 1822.3 1883.62 1826.53 1881.42 1831.73 1883.07 1833.9 1887.27 1837.69 1894.53 1844.06 1899.9 1851.87 1902.34 1859.69 1904.82 1867.98 1904.1 1875.25 1900.31 1882.51 1896.53 1887.85 1890.16 1890.32 1882.35 1892.77 1874.53 1892.04 1866.24 1888.29 1858.97L1860.55 1805.69C1852.73 1790.72 1834.21 1784.87 1819.24 1792.65 1816.1 1794.3 1813.28 1796.43 1810.9 1799.01 1807.67 1802.49 1802.23 1802.73 1798.75 1799.49 1795.28 1796.26 1795.07 1790.82 1798.27 1787.34 1802.02 1783.32 1806.39 1779.98 1811.28 1777.4 1834.69 1765.21 1863.64 1774.37 1875.83 1797.74L1903.58 1851.02C1909.46 1862.35 1910.6 1875.32 1906.78 1887.51 1902.92 1899.69 1894.56 1909.68 1883.23 1915.56 1876.31 1919.18 1868.77 1921 1861.2 1921Z" fill="#FFFFFF" fill-rule="evenodd"/></g></svg>