<svg width="116" height="116" xmlns="http://www.w3.org/2000/svg" xmlns:xlink="http://www.w3.org/1999/xlink" xml:space="preserve" overflow="hidden"><g transform="translate(-801 -393)"><path d="M895.188 486.067 882.576 486.067C881.61 486.067 880.816 485.281 880.816 484.307L880.816 474.289 873.974 466.416C873.695 466.096 873.548 465.687 873.548 465.262L873.548 433.686C873.548 433.415 873.654 433.154 873.843 432.965 874.154 432.654 874.563 432.482 874.997 432.482L874.997 432.482C875.439 432.482 875.864 432.662 876.167 432.973L892.7 449.793C893.068 450.169 893.175 450.718 892.97 451.201 892.766 451.683 892.299 451.994 891.775 451.994L886.684 451.904 886.684 464.983 890.67 468.65 896.318 473.471C896.71 473.806 896.931 474.289 896.931 474.805L896.931 484.291C896.931 485.257 896.146 486.05 895.172 486.05ZM882.862 484.021 894.902 484.021 894.902 474.952 889.328 470.189 885.219 466.407C884.859 466.08 884.655 465.605 884.655 465.114L884.655 451.413C884.655 450.554 885.358 449.85 886.218 449.85L889.966 449.916 875.594 435.29 875.594 465.147 882.437 473.021C882.715 473.34 882.862 473.749 882.862 474.175L882.862 484.012ZM886.602 464.91 886.602 464.91C886.602 464.91 886.602 464.91 886.602 464.91Z" fill="#FFFFFF"/><path d="M835.171 486.067 822.714 486.067C821.699 486.067 820.88 485.24 820.88 484.233L820.88 474.854C820.88 474.314 821.118 473.806 821.527 473.463L827.174 468.642 831.127 465 831.127 451.921 826.053 452.011 826.053 452.011C825.513 452.011 825.046 451.7 824.842 451.217 824.637 450.734 824.743 450.186 825.112 449.809L841.645 432.99C841.956 432.671 842.373 432.499 842.815 432.499L842.815 432.499C843.249 432.499 843.658 432.671 843.969 432.982 844.157 433.17 844.272 433.432 844.272 433.702L844.272 465.245C844.272 465.687 844.116 466.113 843.822 466.448L837.004 474.306 837.004 484.242C837.004 485.257 836.177 486.075 835.171 486.075ZM822.926 484.021 834.966 484.021 834.966 474.216C834.966 473.774 835.122 473.348 835.416 473.012L842.234 465.155 842.234 435.298 827.862 449.924 831.594 449.858C832.478 449.858 833.174 450.562 833.174 451.422L833.174 465.09C833.174 465.597 832.961 466.088 832.584 466.44L828.533 470.172 822.935 474.96 822.935 484.029Z" fill="#FFFFFF"/><path d="M850.353 435.503 852.399 435.503 852.399 429.872C852.399 429.086 851.761 428.456 850.983 428.456L848.389 428.456 855.992 420.852 854.544 419.403 845.532 428.415C845.18 428.767 845.074 429.29 845.27 429.749 845.459 430.207 845.901 430.502 846.4 430.502L850.353 430.502 850.353 435.503Z" fill="#FFFFFF"/><path d="M871.993 428.423 859.921 416.138C859.643 415.86 859.274 415.696 858.873 415.696 858.513 415.679 858.104 415.851 857.826 416.13L855.861 418.094 857.31 419.543 858.865 417.988 869.153 428.456 866.534 428.456C865.748 428.456 865.118 429.094 865.118 429.872L865.118 465.908C865.118 466.105 865.159 466.301 865.241 466.481L868.67 474.224 868.67 484.021 848.847 484.021 848.847 474.224 852.276 466.489C852.358 466.309 852.399 466.113 852.399 465.916L852.399 437.377 850.353 437.377 850.353 465.785 846.924 473.528C846.842 473.708 846.801 473.905 846.801 474.101L846.801 484.659C846.801 485.445 847.439 486.075 848.217 486.075L869.292 486.075C870.078 486.075 870.708 485.437 870.708 484.659L870.708 474.101C870.708 473.905 870.667 473.708 870.585 473.528L867.156 465.785 867.156 430.51 871.117 430.51C871.608 430.51 872.05 430.215 872.247 429.757 872.435 429.299 872.337 428.783 871.993 428.431Z" fill="#FFFFFF"/></g></svg>