<svg width="142" height="142" xmlns="http://www.w3.org/2000/svg" xmlns:xlink="http://www.w3.org/1999/xlink" xml:space="preserve" overflow="hidden"><g transform="translate(-798 -321)"><path d="M879.405 446.158 854.467 446.158C853.776 446.158 853.215 445.597 853.215 444.906L853.215 402.014C853.215 401.323 853.776 400.762 854.467 400.762 855.159 400.762 855.72 401.323 855.72 402.014L855.72 443.653 878.152 443.653 878.152 399.429 866.711 399.429C866.019 399.429 865.458 398.868 865.458 398.177 865.458 397.485 866.019 396.924 866.711 396.924L879.405 396.924C880.096 396.924 880.657 397.485 880.657 398.177L880.657 444.906C880.657 445.597 880.096 446.158 879.405 446.158Z" fill="#FFFFFF"/><path d="M915.473 446.158 890.145 446.158C889.454 446.158 888.893 445.597 888.893 444.906L888.893 381.505C888.893 380.814 889.454 380.253 890.145 380.253 890.837 380.253 891.398 380.814 891.398 381.505L891.398 443.653 914.221 443.653 914.221 381.695 902.008 381.695C901.316 381.695 900.755 381.134 900.755 380.443 900.755 379.752 901.316 379.191 902.008 379.191L915.473 379.191C916.165 379.191 916.726 379.752 916.726 380.443L916.726 444.906C916.726 445.597 916.165 446.158 915.473 446.158Z" fill="#FFFFFF"/><path d="M846.312 446.158 822.517 446.158C821.825 446.158 821.264 445.597 821.264 444.906L821.264 416.892C821.264 416.201 821.825 415.64 822.517 415.64L846.312 415.64C847.003 415.64 847.564 416.201 847.564 416.892L847.564 444.906C847.564 445.597 847.003 446.158 846.312 446.158ZM823.769 443.653 845.06 443.653 845.06 418.145 823.769 418.145 823.769 443.653Z" fill="#FFFFFF"/><path d="M845.711 404.168C844.909 404.168 844.138 404.148 843.396 404.108 831.283 403.437 824.009 397.976 823.709 397.736 823.228 397.365 823.078 396.694 823.368 396.153 823.659 395.612 824.29 395.361 824.871 395.552 853.736 405.17 875.387 375.484 878.934 370.264L869.115 359.112C868.795 358.742 868.714 358.221 868.915 357.77 869.115 357.319 869.566 357.029 870.057 357.029L901.397 357.029C902.088 357.029 902.649 357.59 902.649 358.281L902.649 390.091C902.649 390.592 902.348 391.043 901.888 391.244 901.427 391.444 900.896 391.344 900.525 390.993L890.967 381.866C872.722 399.97 856.652 404.158 845.711 404.158ZM834.018 399.9C836.714 400.742 839.96 401.423 843.687 401.613 858.786 402.385 874.836 394.65 890.055 379.241 890.536 378.75 891.317 378.74 891.808 379.211L900.134 387.166 900.134 359.533 872.822 359.533 881.439 369.322C881.799 369.733 881.849 370.344 881.559 370.815 881.349 371.155 862.022 401.653 834.008 399.9Z" fill="#FFFFFF"/><path d="M838.507 390.773C824.931 390.773 813.89 379.732 813.89 366.156 813.89 352.58 824.931 341.539 838.507 341.539 852.083 341.539 863.124 352.58 863.124 366.156 863.124 379.732 852.083 390.773 838.507 390.773ZM838.507 344.044C826.314 344.044 816.395 353.963 816.395 366.156 816.395 378.349 826.314 388.268 838.507 388.268 850.7 388.268 860.619 378.349 860.619 366.156 860.619 353.963 850.7 344.044 838.507 344.044Z" fill="#FFFFFF"/><path d="M848.566 377.207C847.805 378.509 846.683 379.591 845.21 380.433 843.727 381.285 841.984 381.776 839.98 381.916L839.98 385.402 837.225 385.402 837.225 381.866C834.349 381.605 832.045 380.744 830.291 379.261 828.538 377.778 827.636 375.774 827.576 373.249L834.039 373.249C834.209 375.313 835.271 376.566 837.225 376.996L837.225 368.771C835.161 368.25 833.487 367.739 832.225 367.218 830.963 366.697 829.871 365.865 828.949 364.723 828.027 363.571 827.566 362.008 827.566 360.024 827.566 357.529 828.468 355.486 830.261 353.903 832.055 352.32 834.379 351.418 837.215 351.187L837.215 347.701 839.97 347.701 839.97 351.187C842.725 351.418 844.929 352.249 846.582 353.682 848.236 355.115 849.157 357.099 849.358 359.623L842.855 359.623C842.765 358.792 842.475 358.07 841.974 357.449 841.473 356.828 840.801 356.397 839.97 356.137L839.97 364.282C842.124 364.823 843.827 365.354 845.08 365.855 846.332 366.356 847.414 367.178 848.336 368.31 849.257 369.442 849.718 371.005 849.718 372.989 849.718 374.482 849.338 375.884 848.576 377.187ZM834.71 362.038C835.281 362.629 836.112 363.11 837.205 363.481L837.205 356.027C836.173 356.167 835.351 356.558 834.75 357.189 834.149 357.82 833.848 358.672 833.848 359.734 833.848 360.685 834.139 361.447 834.71 362.038ZM842.525 375.764C843.146 375.073 843.446 374.241 843.446 373.269 843.446 372.298 843.146 371.556 842.545 370.985 841.944 370.414 841.082 369.933 839.96 369.562L839.96 377.107C841.052 376.906 841.904 376.455 842.525 375.774Z" fill="#FFFFFF"/></g></svg>