<svg width="116" height="116" xmlns="http://www.w3.org/2000/svg" xmlns:xlink="http://www.w3.org/1999/xlink" xml:space="preserve" overflow="hidden"><g transform="translate(-801 -393)"><path d="M821.92 496.469C821.65 496.469 821.388 496.338 821.232 496.101 820.987 495.725 821.093 495.217 821.47 494.972L830.194 489.292C833.419 487.196 837.389 486.599 841.08 487.663L859.037 492.827C863.309 494.055 867.868 493.327 871.551 490.83L875.799 487.941 897.676 472.423C899.51 471.122 899.943 468.576 898.642 466.743 897.341 464.91 894.795 464.476 892.962 465.777L873.753 479.405C873.384 479.666 872.869 479.576 872.615 479.208 872.353 478.84 872.443 478.332 872.811 478.07L892.021 464.443C893.265 463.559 894.779 463.215 896.285 463.469 897.791 463.723 899.1 464.55 899.984 465.794 901.809 468.364 901.196 471.932 898.634 473.757L876.74 489.283 872.484 492.181C868.4 494.955 863.342 495.766 858.603 494.399L840.646 489.234C837.405 488.301 833.927 488.825 831.103 490.667L822.378 496.347C822.239 496.437 822.083 496.478 821.936 496.478Z" fill="#FFFFFF"/><path d="M867.696 472.726C867.442 472.726 867.189 472.603 867.025 472.382 866.763 472.014 866.853 471.506 867.221 471.245L881.823 460.883C883.067 459.999 884.581 459.655 886.087 459.909 887.593 460.163 888.902 460.989 889.786 462.233 890.834 463.707 891.12 465.54 890.572 467.267 890.433 467.701 889.983 467.938 889.549 467.799 889.115 467.66 888.878 467.201 889.017 466.776 889.41 465.548 889.205 464.239 888.46 463.183 887.83 462.299 886.889 461.71 885.817 461.521 884.745 461.341 883.664 461.587 882.78 462.217L868.179 472.579C868.04 472.677 867.868 472.726 867.704 472.726Z" fill="#FFFFFF"/><path d="M860.706 469.329C860.453 469.329 860.199 469.207 860.035 468.986 859.773 468.617 859.863 468.11 860.232 467.848L872.108 459.426C873.352 458.542 874.866 458.198 876.372 458.452 877.878 458.706 879.187 459.532 880.071 460.776 880.513 461.407 880.824 462.102 880.988 462.847 881.086 463.289 880.808 463.723 880.366 463.821 879.924 463.911 879.49 463.641 879.392 463.199 879.277 462.667 879.056 462.168 878.737 461.726 878.107 460.842 877.174 460.253 876.102 460.064 875.029 459.884 873.949 460.13 873.065 460.76L861.189 469.182C861.05 469.28 860.878 469.329 860.715 469.329Z" fill="#FFFFFF"/><path d="M868.351 483.169C867.59 483.169 866.837 483.014 866.116 482.711L850.361 476.008C849.944 475.828 849.747 475.353 849.927 474.936 850.107 474.518 850.582 474.322 851 474.502L866.755 481.205C867.753 481.631 868.858 481.639 869.873 481.238 870.88 480.829 871.674 480.059 872.099 479.053 872.975 476.99 872.009 474.592 869.947 473.708L848.274 464.492 844.714 462.921C840.843 461.21 836.366 461.759 833.026 464.37L812.491 480.419C812.131 480.698 811.615 480.632 811.345 480.28 811.067 479.92 811.133 479.413 811.484 479.134L832.02 463.085C835.834 460.105 840.949 459.467 845.377 461.431L848.921 463.003 870.577 472.219C873.474 473.454 874.825 476.81 873.597 479.707 873 481.107 871.895 482.195 870.479 482.768 869.791 483.047 869.063 483.186 868.343 483.186Z" fill="#FFFFFF"/><path d="M861.067 456.504C847.832 456.504 837.069 445.741 837.069 432.507 837.069 419.272 847.832 408.51 861.067 408.51 874.301 408.51 885.064 419.272 885.064 432.507 885.064 445.741 874.301 456.504 861.067 456.504ZM861.067 410.548C848.962 410.548 839.116 420.394 839.116 432.499 839.116 444.604 848.962 454.45 861.067 454.45 873.172 454.45 883.018 444.604 883.018 432.499 883.018 420.394 873.172 410.548 861.067 410.548Z" fill="#FFFFFF"/><path d="M869.8 442.729C869.079 443.974 868.015 444.997 866.608 445.799 865.2 446.601 863.547 447.076 861.631 447.206L861.631 450.521 859.012 450.521 859.012 447.166C856.287 446.92 854.085 446.093 852.424 444.686 850.762 443.278 849.903 441.379 849.846 438.981L855.984 438.981C856.148 440.945 857.154 442.132 859.012 442.541L859.012 434.725C857.048 434.234 855.468 433.743 854.265 433.252 853.062 432.761 852.031 431.967 851.155 430.878 850.279 429.79 849.846 428.3 849.846 426.418 849.846 424.044 850.697 422.104 852.399 420.607 854.102 419.109 856.303 418.249 859.004 418.028L859.004 414.714 861.623 414.714 861.623 418.028C864.242 418.249 866.337 419.035 867.901 420.402 869.472 421.769 870.348 423.651 870.544 426.049L864.365 426.049C864.283 425.255 864.005 424.568 863.522 423.979 863.047 423.389 862.409 422.98 861.615 422.735L861.615 430.469C863.661 430.985 865.282 431.484 866.46 431.967 867.647 432.441 868.678 433.219 869.554 434.299 870.43 435.38 870.864 436.853 870.864 438.735 870.864 440.151 870.503 441.485 869.783 442.729ZM856.639 428.325C857.187 428.881 857.973 429.34 859.012 429.7L859.012 422.62C858.03 422.759 857.253 423.127 856.68 423.725 856.107 424.322 855.82 425.133 855.82 426.139 855.82 427.04 856.09 427.768 856.639 428.325ZM864.07 441.363C864.66 440.708 864.946 439.914 864.946 438.989 864.946 438.064 864.66 437.369 864.087 436.82 863.514 436.272 862.695 435.822 861.631 435.47L861.631 442.631C862.671 442.443 863.481 442.017 864.07 441.363Z" fill="#FFFFFF"/></g></svg>