<svg width="337" height="297" xmlns="http://www.w3.org/2000/svg" xmlns:xlink="http://www.w3.org/1999/xlink" xml:space="preserve" overflow="hidden"><defs><clipPath id="clip0"><rect x="2251" y="1685" width="337" height="297"/></clipPath></defs><g clip-path="url(#clip0)" transform="translate(-2251 -1685)"><path d="M2532.74 1946 2488.29 1946C2485.92 1946 2484 1944.06 2484 1941.66 2484 1939.26 2485.92 1937.32 2488.29 1937.32L2529.41 1937.32 2545.55 1875.24C2546.13 1872.91 2548.5 1871.52 2550.8 1872.15 2553.1 1872.77 2554.47 1875.14 2553.85 1877.46L2536.86 1942.77C2536.38 1944.68 2534.66 1946 2532.71 1946Z" fill="#FFFFFF" fill-rule="evenodd"/><path d="M2487.71 1946 2257.3 1946C2255.96 1946 2254.73 1945.38 2253.9 1944.31 2253.08 1943.24 2252.8 1941.86 2253.14 1940.59L2293.63 1786.21C2294.11 1784.31 2295.83 1783 2297.79 1783L2572.7 1783C2574.04 1783 2575.27 1783.62 2576.1 1784.69 2576.92 1785.76 2577.2 1787.14 2576.86 1788.41L2553.38 1877.95C2552.76 1880.26 2550.43 1881.63 2548.12 1881.01 2545.82 1880.39 2544.45 1878.05 2545.07 1875.74L2567.13 1791.58 2301.09 1791.58 2262.87 1937.35 2487.71 1937.35C2490.08 1937.35 2492 1939.28 2492 1941.66 2492 1944.04 2490.08 1945.97 2487.71 1945.97Z" fill="#FFFFFF" fill-rule="evenodd"/><path d="M2255.3 1946C2252.93 1946 2251 1944.07 2251 1941.69L2251 1719.31C2251 1716.93 2252.93 1715 2255.3 1715L2362.82 1715C2363.96 1715 2365.06 1715.45 2365.85 1716.28L2394.48 1744.96 2530.7 1744.96C2533.07 1744.96 2535 1746.89 2535 1749.27L2535 1787.3C2535 1789.68 2533.07 1791.61 2530.7 1791.61 2528.33 1791.61 2526.4 1789.68 2526.4 1787.3L2526.4 1753.58 2392.72 1753.58C2391.59 1753.58 2390.49 1753.13 2389.7 1752.3L2361.07 1723.62 2259.64 1723.62 2259.64 1941.69C2259.64 1944.07 2257.71 1946 2255.34 1946Z" fill="#FFFFFF" fill-rule="evenodd"/><path d="M2560.74 1792C2558.36 1792 2556.44 1790.07 2556.44 1787.69L2556.44 1725.23 2422.1 1725.23C2420.97 1725.23 2419.87 1724.78 2419.08 1723.96L2388.85 1693.63 2288.6 1693.63 2288.6 1719.64C2288.6 1722.02 2286.67 1723.96 2284.3 1723.96 2281.93 1723.96 2280 1722.02 2280 1719.64L2280 1689.31C2280 1686.93 2281.93 1685 2284.3 1685L2390.6 1685C2391.74 1685 2392.84 1685.45 2393.63 1686.28L2423.86 1716.61 2560.7 1716.61C2563.07 1716.61 2565 1718.54 2565 1720.92L2565 1787.69C2565 1790.07 2563.07 1792 2560.7 1792Z" fill="#FFFFFF" fill-rule="evenodd"/><path d="M2311.41 1909.71C2310.44 1908.84 2310 1907.79 2310 1906.5 2310 1905.21 2310.48 1904.16 2311.41 1903.29 2312.37 1902.42 2313.56 1902 2315.04 1902 2316.52 1902 2317.67 1902.42 2318.59 1903.29 2319.52 1904.16 2320 1905.21 2320 1906.5 2320 1907.79 2319.56 1908.84 2318.59 1909.71 2317.67 1910.58 2316.48 1911 2315.04 1911 2313.59 1911 2312.33 1910.58 2311.41 1909.71Z" fill="#FFFFFF" fill-rule="evenodd"/><path d="M2325.41 1909.71C2324.44 1908.84 2324 1907.79 2324 1906.5 2324 1905.21 2324.48 1904.16 2325.41 1903.29 2326.37 1902.42 2327.56 1902 2329.04 1902 2330.52 1902 2331.67 1902.42 2332.59 1903.29 2333.52 1904.16 2334 1905.21 2334 1906.5 2334 1907.79 2333.56 1908.84 2332.59 1909.71 2331.67 1910.58 2330.48 1911 2329.04 1911 2327.59 1911 2326.33 1910.58 2325.41 1909.71Z" fill="#FFFFFF" fill-rule="evenodd"/><path d="M2339.41 1909.71C2338.44 1908.84 2338 1907.79 2338 1906.5 2338 1905.21 2338.48 1904.16 2339.41 1903.29 2340.37 1902.42 2341.56 1902 2343.04 1902 2344.52 1902 2345.67 1902.42 2346.59 1903.29 2347.52 1904.16 2348 1905.21 2348 1906.5 2348 1907.79 2347.56 1908.84 2346.59 1909.71 2345.67 1910.58 2344.48 1911 2343.04 1911 2341.59 1911 2340.33 1910.58 2339.41 1909.71Z" fill="#FFFFFF" fill-rule="evenodd"/><path d="M2533.22 1968.65 2538.92 1981 2558.93 1971.55 2553.54 1959.86C2557.06 1957.24 2560.19 1954.13 2562.89 1950.65L2575.71 1955.89C2575.71 1955.89 2575.91 1955.96 2576.01 1955.96 2576.32 1955.96 2576.63 1955.76 2576.76 1955.45L2585.01 1934.75C2585.18 1934.34 2585.01 1933.86 2584.57 1933.72L2572.43 1928.75C2572.84 1926.16 2573.08 1923.51 2573.08 1920.82 2573.08 1918.65 2572.91 1916.51 2572.64 1914.4L2585.53 1908.75C2585.93 1908.58 2586.1 1908.09 2585.93 1907.68L2577.14 1887.19C2576.97 1886.78 2576.49 1886.61 2576.08 1886.78L2563.84 1892.16C2561.15 1888.44 2557.94 1885.12 2554.36 1882.33L2559.58 1868.92C2559.75 1868.5 2559.54 1868.02 2559.14 1867.88L2538.61 1859.71C2538.41 1859.64 2538.2 1859.64 2538 1859.71 2537.79 1859.78 2537.66 1859.95 2537.59 1860.16L2532.64 1872.85C2530.16 1872.43 2527.63 1872.23 2525.04 1872.23 2522.89 1872.23 2520.78 1872.4 2518.7 1872.67L2512.87 1859.47C2512.77 1859.26 2512.63 1859.12 2512.43 1859.05 2512.22 1858.98 2512.02 1858.98 2511.81 1859.05L2491.66 1868.12C2491.25 1868.29 2491.08 1868.78 2491.25 1869.19L2496.71 1881.61C2493.26 1884.16 2490.16 1887.16 2487.5 1890.54L2474.34 1885.16C2473.93 1884.99 2473.49 1885.16 2473.32 1885.61L2465.07 1906.3C2464.9 1906.71 2465.07 1907.2 2465.51 1907.33L2477.75 1912.34C2477.27 1915.09 2477 1917.96 2477 1920.85 2477 1923.27 2477.21 1925.61 2477.55 1927.92L2465 1933.58 2473.97 1953.96 2485.7 1948.69C2488.7 1953 2492.34 1956.82 2496.54 1959.96L2491.7 1972.76 2512.29 1980.76 2516.82 1968.76C2519.48 1969.24 2522.25 1969.48 2525.04 1969.48 2527.84 1969.48 2530.6 1969.21 2533.29 1968.76M2547.58 1949.75C2546.9 1950.31 2546.21 1950.82 2545.5 1951.31 2542.22 1953.55 2538.58 1955.2 2534.69 1956.27 2531.62 1957.13 2528.38 1957.62 2525.04 1957.62 2521.7 1957.62 2518.46 1957.13 2515.39 1956.27 2511.51 1955.2 2507.82 1953.51 2504.55 1951.27 2503.83 1950.79 2503.19 1950.27 2502.54 1949.75 2493.95 1942.96 2488.39 1932.41 2488.39 1920.58 2488.39 1900.13 2504.82 1883.5 2525.04 1883.5 2545.26 1883.5 2561.69 1900.13 2561.69 1920.58 2561.69 1932.41 2556.17 1942.96 2547.58 1949.75Z" fill="#FFFFFF" fill-rule="evenodd"/><path d="M2539.18 1981.97C2538.69 1981.97 2538.21 1981.69 2538 1981.21L2532.66 1969.82C2527.62 1970.61 2522.65 1970.61 2517.58 1969.82L2513.37 1980.77C2513.23 1981.07 2512.99 1981.35 2512.68 1981.49 2512.37 1981.62 2512.03 1981.62 2511.68 1981.49L2490.84 1973.53C2490.19 1973.29 2489.84 1972.53 2490.09 1971.88L2494.64 1960.08C2490.91 1957.24 2487.6 1953.84 2484.81 1950.03L2473.91 1954.87C2473.25 1955.14 2472.49 1954.87 2472.18 1954.22L2463.11 1933.95C2462.83 1933.3 2463.11 1932.54 2463.76 1932.23L2475.56 1927.02C2475.29 1924.89 2475.15 1922.8 2475.15 1920.78 2475.15 1918.24 2475.35 1915.67 2475.77 1913.13L2464.32 1908.53C2463.25 1908.12 2462.73 1906.89 2463.14 1905.82L2471.53 1885.25C2471.97 1884.18 2473.22 1883.67 2474.25 1884.08L2486.7 1889.09C2489.12 1886.21 2491.84 1883.6 2494.81 1881.34L2489.71 1869.95C2489.26 1868.89 2489.71 1867.65 2490.78 1867.2L2511.16 1858.18C2511.65 1857.94 2512.23 1857.94 2512.75 1858.15 2513.27 1858.36 2513.68 1858.73 2513.92 1859.25L2519.41 1871.53C2523.62 1871.05 2527.65 1871.11 2531.9 1871.7L2536.52 1860.04C2536.73 1859.52 2537.14 1859.11 2537.66 1858.87 2538.18 1858.66 2538.73 1858.63 2539.28 1858.87L2560.05 1867C2560.57 1867.2 2560.98 1867.58 2561.19 1868.1 2561.39 1868.61 2561.43 1869.16 2561.19 1869.67L2556.25 1882.12C2559.43 1884.66 2562.26 1887.54 2564.71 1890.73L2576.16 1885.79C2577.23 1885.35 2578.47 1885.79 2578.92 1886.89L2587.82 1907.23C2588.06 1907.75 2588.06 1908.29 2587.82 1908.84 2587.61 1909.36 2587.23 1909.77 2586.72 1909.97L2574.57 1915.22C2574.78 1917.11 2574.88 1918.96 2574.88 1920.78 2574.88 1923.11 2574.71 1925.51 2574.36 1927.88L2585.72 1932.44C2586.78 1932.85 2587.3 1934.09 2586.89 1935.15L2578.54 1955.73C2578.19 1956.52 2577.44 1957.03 2576.61 1957.03 2576.43 1957.03 2575.99 1956.93 2575.81 1956.86L2563.74 1952.02C2561.29 1955.01 2558.53 1957.72 2555.49 1960.05L2560.53 1970.75C2560.67 1971.06 2560.7 1971.4 2560.57 1971.74 2560.46 1972.05 2560.22 1972.33 2559.91 1972.47L2539.66 1981.86C2539.49 1981.93 2539.31 1982 2539.11 1982ZM2533.42 1967.11C2533.9 1967.11 2534.38 1967.39 2534.59 1967.87L2539.8 1978.98 2557.7 1970.68 2552.8 1960.22C2552.53 1959.67 2552.7 1959.02 2553.22 1958.64 2556.67 1956.11 2559.77 1953.12 2562.43 1949.73 2562.77 1949.28 2563.39 1949.11 2563.95 1949.31L2576.47 1954.32 2584.47 1934.63 2572.64 1929.87C2572.09 1929.63 2571.74 1929.04 2571.85 1928.46 2572.26 1925.89 2572.5 1923.32 2572.5 1920.78 2572.5 1918.75 2572.36 1916.66 2572.09 1914.57 2572.02 1913.99 2572.33 1913.44 2572.85 1913.23L2585.44 1907.81 2576.92 1888.33 2564.98 1893.51C2564.43 1893.75 2563.77 1893.58 2563.43 1893.1 2560.77 1889.5 2557.63 1886.31 2554.08 1883.57 2553.63 1883.22 2553.46 1882.6 2553.67 1882.09L2558.77 1869.19 2538.9 1861.41 2534.07 1873.55C2533.86 1874.1 2533.28 1874.44 2532.66 1874.34 2527.96 1873.58 2523.55 1873.52 2518.93 1874.17 2518.34 1874.2 2517.79 1873.93 2517.58 1873.41L2511.89 1860.72 2492.4 1869.37 2497.71 1881.27C2497.95 1881.82 2497.78 1882.47 2497.3 1882.84 2493.91 1885.31 2490.84 1888.23 2488.22 1891.49 2487.88 1891.93 2487.26 1892.11 2486.74 1891.87L2473.87 1886.69 2465.87 1906.37 2477.8 1911.17C2478.36 1911.42 2478.7 1912 2478.6 1912.58 2478.11 1915.32 2477.87 1918.1 2477.87 1920.81 2477.87 1923.04 2478.05 1925.27 2478.39 1927.67 2478.46 1928.26 2478.15 1928.8 2477.63 1929.04L2466.11 1934.15 2474.15 1952.09 2484.84 1947.36C2485.39 1947.12 2486.08 1947.29 2486.43 1947.81 2489.4 1952.02 2492.98 1955.69 2497.09 1958.71 2497.57 1959.05 2497.74 1959.67 2497.54 1960.22L2493.09 1971.71 2511.51 1978.74 2515.65 1968.01C2515.86 1967.42 2516.44 1967.08 2517.1 1967.22 2522.55 1968.14 2527.9 1968.14 2533.31 1967.22 2533.38 1967.22 2533.45 1967.22 2533.52 1967.22ZM2585.78 1907.61 2585.78 1907.61 2585.78 1907.61ZM2576.64 1887.89 2576.64 1887.89C2576.64 1887.89 2576.64 1887.89 2576.64 1887.89ZM2473.32 1886.45 2473.32 1886.45 2473.32 1886.45ZM2559.15 1869.33C2559.15 1869.33 2559.15 1869.33 2559.15 1869.33L2559.15 1869.33ZM2538.38 1861.2C2538.38 1861.2 2538.38 1861.2 2538.38 1861.2L2538.38 1861.2ZM2512.3 1860.48 2512.3 1860.48C2512.3 1860.48 2512.3 1860.48 2512.3 1860.48ZM2525.14 1958.61C2521.82 1958.61 2518.41 1958.13 2515.03 1957.24 2510.92 1956.11 2507.09 1954.39 2503.68 1952.09 2503.02 1951.65 2502.37 1951.17 2501.75 1950.65 2492.16 1943.21 2486.74 1932.23 2486.74 1920.47 2486.74 1899.44 2503.95 1882.33 2525.1 1882.33 2546.25 1882.33 2563.46 1899.44 2563.46 1920.47 2563.46 1932.23 2558.08 1943.17 2548.7 1950.48L2547.91 1949.49 2548.7 1950.48 2547.91 1949.49 2548.56 1950.62C2547.91 1951.13 2547.22 1951.65 2546.52 1952.13 2543.11 1954.42 2539.31 1956.14 2535.21 1957.27 2531.83 1958.2 2528.41 1958.64 2525.1 1958.64ZM2525.14 1884.87C2505.4 1884.87 2489.36 1900.82 2489.36 1920.44 2489.36 1931.41 2494.4 1941.63 2503.16 1948.46 2503.92 1949.07 2504.51 1949.52 2505.13 1949.93 2508.3 1952.06 2511.85 1953.67 2515.72 1954.73 2522.03 1956.45 2528.24 1956.45 2534.55 1954.73 2538.38 1953.7 2541.94 1952.09 2545.11 1949.97 2545.77 1949.52 2546.39 1949.04 2547.01 1948.56L2547.15 1948.46C2555.91 1941.63 2560.95 1931.45 2560.95 1920.47 2560.95 1900.85 2544.9 1884.9 2525.17 1884.9Z" fill="#FFFFFF" fill-rule="evenodd"/></g></svg>