<svg width="116" height="116" xmlns="http://www.w3.org/2000/svg" xmlns:xlink="http://www.w3.org/1999/xlink" xml:space="preserve" overflow="hidden"><g transform="translate(-801 -393)"><path d="M830.841 480.534C830.71 480.534 830.587 480.509 830.464 480.46 830.072 480.305 829.818 479.928 829.818 479.511L829.818 473.25 818.49 473.25C815.519 473.25 813.105 470.835 813.105 467.864L813.105 445.308C813.105 442.337 815.519 439.922 818.49 439.922L850.721 439.922C851.286 439.922 851.744 440.38 851.744 440.945 851.744 441.51 851.286 441.968 850.721 441.968L818.49 441.968C816.649 441.968 815.151 443.466 815.151 445.308L815.151 467.864C815.151 469.706 816.649 471.204 818.49 471.204L830.841 471.204C831.406 471.204 831.864 471.662 831.864 472.227L831.864 476.933 836.963 471.523C837.159 471.318 837.421 471.204 837.708 471.204L862.9 471.204C864.741 471.204 866.239 469.706 866.239 467.864L866.239 452.06C866.239 451.495 866.698 451.037 867.262 451.037 867.827 451.037 868.285 451.495 868.285 452.06L868.285 467.864C868.285 470.835 865.871 473.25 862.9 473.25L838.142 473.25 831.578 480.215C831.381 480.428 831.111 480.534 830.833 480.534Z" fill="#FFFFFF"/><path d="M887.159 460.023C886.881 460.023 886.611 459.909 886.414 459.704L879.85 452.739 855.1 452.739C852.129 452.739 849.706 450.325 849.706 447.354L849.706 424.797C849.706 421.826 852.121 419.412 855.1 419.412L899.51 419.412C902.481 419.412 904.903 421.826 904.903 424.797L904.903 447.354C904.903 450.325 902.489 452.739 899.51 452.739L888.182 452.739 888.182 459C888.182 459.418 887.928 459.794 887.536 459.95 887.413 459.999 887.282 460.023 887.159 460.023ZM855.092 421.45C853.25 421.45 851.744 422.947 851.744 424.789L851.744 447.346C851.744 449.187 853.242 450.685 855.092 450.685L880.284 450.685C880.562 450.685 880.832 450.799 881.029 451.004L886.128 456.414 886.128 451.708C886.128 451.143 886.586 450.685 887.151 450.685L899.501 450.685C901.343 450.685 902.849 449.187 902.849 447.346L902.849 424.789C902.849 422.947 901.351 421.45 899.501 421.45L855.092 421.45Z" fill="#FFFFFF"/><path d="M875.537 429.078 856.958 429.078C856.393 429.078 855.935 428.619 855.935 428.055 855.935 427.49 856.393 427.031 856.958 427.031L875.537 427.031C876.102 427.031 876.56 427.49 876.56 428.055 876.56 428.619 876.102 429.078 875.537 429.078Z" fill="#FFFFFF"/><path d="M897.635 436.444 856.958 436.444C856.393 436.444 855.935 435.985 855.935 435.421 855.935 434.856 856.393 434.398 856.958 434.398L897.635 434.398C898.2 434.398 898.658 434.856 898.658 435.421 898.658 435.985 898.2 436.444 897.635 436.444Z" fill="#FFFFFF"/><path d="M897.635 443.81 856.958 443.81C856.393 443.81 855.935 443.352 855.935 442.787 855.935 442.222 856.393 441.764 856.958 441.764L897.635 441.764C898.2 441.764 898.658 442.222 898.658 442.787 898.658 443.352 898.2 443.81 897.635 443.81Z" fill="#FFFFFF"/></g></svg>