<svg width="95" height="95" xmlns="http://www.w3.org/2000/svg" xmlns:xlink="http://www.w3.org/1999/xlink" xml:space="preserve" overflow="hidden"><g transform="translate(-464 -344)"><path d="M543.751 406.002C543.342 406.002 542.987 405.707 542.926 405.291 542.853 404.835 543.168 404.406 543.624 404.333 545.185 404.091 546.486 402.952 546.942 401.437 548.55 396.021 546.714 390.277 542.256 386.805L534.488 380.745 518.019 369.096C513.112 365.624 507.106 363.854 501.1 364.102L495.242 364.35C485.63 364.752 478.043 372.608 477.969 382.227L477.949 384.573C477.935 386.436 476.407 387.951 474.544 387.951 474.182 387.951 473.887 388.246 473.887 388.608L473.887 396.517C473.887 398.615 474.704 400.592 476.193 402.074 476.521 402.402 476.521 402.932 476.193 403.26 475.864 403.589 475.335 403.589 475.006 403.26 473.203 401.457 472.211 399.064 472.211 396.517L472.211 388.608C472.211 387.321 473.257 386.275 474.544 386.275 475.489 386.275 476.266 385.504 476.273 384.559L476.293 382.213C476.374 371.696 484.665 363.117 495.175 362.674L501.033 362.426C507.401 362.158 513.782 364.042 518.99 367.721L535.493 379.398 543.295 385.477C548.295 389.379 550.367 395.827 548.557 401.913 547.92 404.051 546.09 405.646 543.892 405.988 543.851 405.988 543.805 405.995 543.764 405.995Z" fill="#FFFFFF"/><path d="M526.518 406.062 493.372 406.062C492.91 406.062 492.534 405.687 492.534 405.224 492.534 404.762 492.91 404.386 493.372 404.386L526.518 404.386C526.98 404.386 527.356 404.762 527.356 405.224 527.356 405.687 526.98 406.062 526.518 406.062Z" fill="#FFFFFF"/><path d="M484.886 412.658C479.598 412.658 475.288 408.354 475.288 403.059 475.288 397.764 479.591 393.461 484.886 393.461 490.181 393.461 494.485 397.764 494.485 403.059 494.485 408.354 490.181 412.658 484.886 412.658ZM484.886 395.143C480.516 395.143 476.963 398.696 476.963 403.066 476.963 407.436 480.516 410.989 484.886 410.989 489.256 410.989 492.809 407.436 492.809 403.066 492.809 398.696 489.256 395.143 484.886 395.143Z" fill="#FFFFFF"/><path d="M535.004 412.658C529.715 412.658 525.405 408.354 525.405 403.059 525.405 397.764 529.708 393.461 535.004 393.461 540.299 393.461 544.602 397.764 544.602 403.059 544.602 408.354 540.299 412.658 535.004 412.658ZM535.004 395.143C530.633 395.143 527.081 398.696 527.081 403.066 527.081 407.436 530.633 410.989 535.004 410.989 539.374 410.989 542.926 407.436 542.926 403.066 542.926 398.696 539.374 395.143 535.004 395.143Z" fill="#FFFFFF"/><path d="M526.994 384.01C526.933 384.01 526.873 384.01 526.806 384.003L491.656 380.403C491.569 380.397 491.489 380.383 491.395 380.356 490.865 380.216 488.191 379.411 487.259 377.173 486.669 375.752 486.904 374.103 487.963 372.286 491.113 366.864 494.585 366.843 495.222 366.897L501.027 366.649C506.577 366.421 512.046 367.768 516.846 370.57 518.072 371.287 519.252 372.199 520.344 373.271L528.207 381.013C528.743 381.543 528.884 382.32 528.562 382.997 528.267 383.621 527.664 384.003 526.987 384.003ZM494.974 368.559C494.384 368.559 491.911 368.834 489.417 373.131 488.633 374.478 488.432 375.618 488.814 376.536 489.451 378.071 491.582 378.674 491.824 378.741L526.98 382.341C526.98 382.341 527.027 382.341 527.054 382.3 527.081 382.26 527.054 382.24 527.041 382.22L519.178 374.478C518.186 373.499 517.12 372.675 516.014 372.031 511.49 369.391 506.329 368.11 501.107 368.338L495.249 368.586C495.202 368.586 495.155 368.586 495.108 368.586 495.095 368.586 495.054 368.586 494.981 368.586Z" fill="#FFFFFF"/><path d="M496.77 380.919C496.308 380.919 495.933 380.544 495.933 380.082L495.933 367.668C495.933 367.205 496.308 366.83 496.77 366.83 497.233 366.83 497.608 367.205 497.608 367.668L497.608 380.082C497.608 380.544 497.233 380.919 496.77 380.919Z" fill="#FFFFFF"/><path d="M496.77 380.919C496.308 380.919 495.933 380.544 495.933 380.082L495.933 367.668C495.933 367.205 496.308 366.83 496.77 366.83 497.233 366.83 497.608 367.205 497.608 367.668L497.608 380.082C497.608 380.544 497.233 380.919 496.77 380.919Z" fill="#FFFFFF"/><path d="M539.273 382.381C539.139 382.381 538.999 382.341 538.885 382.253L518.253 367.42C517.952 367.205 517.885 366.783 518.099 366.481 518.313 366.18 518.736 366.113 519.037 366.327L539.669 381.161C539.971 381.375 540.038 381.798 539.823 382.099 539.689 382.28 539.488 382.381 539.28 382.381Z" fill="#FFFFFF"/><path d="M525.512 383.882C525.439 383.882 525.358 383.882 525.278 383.869L511.456 382.454C510.719 382.381 510.183 381.724 510.257 380.987 510.33 380.249 510.994 379.706 511.725 379.787L524.111 381.054 517.918 374.954C517.04 374.089 516.102 373.365 515.123 372.796 514.681 372.541 514.225 372.293 513.769 372.058 513.105 371.723 512.837 370.919 513.172 370.262 513.508 369.598 514.305 369.33 514.969 369.665 515.478 369.92 515.981 370.195 516.47 370.476 517.643 371.16 518.763 372.025 519.795 373.044L527.014 380.155C527.684 380.812 527.852 381.784 527.456 382.629 527.088 383.406 526.337 383.875 525.499 383.875ZM525.15 382.066 525.15 382.066 525.15 382.066Z" fill="#FFFFFF"/><path d="M546.747 417.128 541.941 419.508 531.8 398.448 536.612 396.068 546.747 417.128Z" fill="#FFFFFF"/><path d="M530.633 393.293 532.436 397.006 535.104 395.699 533.301 391.986 530.633 393.293Z" fill="#FFFFFF"/><path d="M525.171 395.096C516.651 395.096 509.72 388.172 509.72 379.659 509.72 371.147 516.651 364.229 525.171 364.229 533.69 364.229 540.621 371.153 540.621 379.659 540.621 388.165 533.69 395.096 525.171 395.096ZM525.171 365.905C517.576 365.905 511.396 372.078 511.396 379.659 511.396 387.24 517.576 393.42 525.171 393.42 532.765 393.42 538.945 387.247 538.945 379.659 538.945 372.072 532.765 365.905 525.171 365.905Z" fill="#FFFFFF"/></g></svg>